G04 #@! TF.GenerationSoftware,KiCad,Pcbnew,9.0.2*
G04 #@! TF.CreationDate,2025-06-30T20:49:54-07:00*
G04 #@! TF.ProjectId,idkwhatimdoing,69646b77-6861-4746-996d-646f696e672e,rev?*
G04 #@! TF.SameCoordinates,Original*
G04 #@! TF.FileFunction,Soldermask,Top*
G04 #@! TF.FilePolarity,Negative*
%FSLAX46Y46*%
G04 Gerber Fmt 4.6, Leading zero omitted, Abs format (unit mm)*
G04 Created by KiCad (PCBNEW 9.0.2) date 2025-06-30 20:49:54*
%MOMM*%
%LPD*%
G01*
G04 APERTURE LIST*
G04 Aperture macros list*
%AMRoundRect*
0 Rectangle with rounded corners*
0 $1 Rounding radius*
0 $2 $3 $4 $5 $6 $7 $8 $9 X,Y pos of 4 corners*
0 Add a 4 corners polygon primitive as box body*
4,1,4,$2,$3,$4,$5,$6,$7,$8,$9,$2,$3,0*
0 Add four circle primitives for the rounded corners*
1,1,$1+$1,$2,$3*
1,1,$1+$1,$4,$5*
1,1,$1+$1,$6,$7*
1,1,$1+$1,$8,$9*
0 Add four rect primitives between the rounded corners*
20,1,$1+$1,$2,$3,$4,$5,0*
20,1,$1+$1,$4,$5,$6,$7,0*
20,1,$1+$1,$6,$7,$8,$9,0*
20,1,$1+$1,$8,$9,$2,$3,0*%
G04 Aperture macros list end*
%ADD10C,17.800000*%
%ADD11R,1.270000X5.080000*%
%ADD12C,1.600000*%
%ADD13R,1.800000X1.800000*%
%ADD14C,1.800000*%
%ADD15R,1.050000X1.500000*%
%ADD16O,1.050000X1.500000*%
%ADD17C,2.000000*%
%ADD18RoundRect,0.250000X-0.550000X0.550000X-0.550000X-0.550000X0.550000X-0.550000X0.550000X0.550000X0*%
G04 APERTURE END LIST*
D10*
G04 #@! TO.C,BT1*
X69000000Y-143500000D03*
D11*
X79985000Y-143500000D03*
X58015000Y-143500000D03*
G04 #@! TD*
D12*
G04 #@! TO.C,R4*
X90630000Y-107880000D03*
X90630000Y-115500000D03*
G04 #@! TD*
G04 #@! TO.C,R2*
X97000000Y-108000000D03*
X97000000Y-115620000D03*
G04 #@! TD*
D13*
G04 #@! TO.C,D1*
X88710000Y-100500000D03*
D14*
X91250000Y-100500000D03*
G04 #@! TD*
D13*
G04 #@! TO.C,D2*
X97210000Y-100500000D03*
D14*
X99750000Y-100500000D03*
G04 #@! TD*
D15*
G04 #@! TO.C,Q1*
X83960000Y-122500000D03*
D16*
X85230000Y-122500000D03*
X86500000Y-122500000D03*
G04 #@! TD*
D17*
G04 #@! TO.C,SW5*
X128120000Y-110000000D03*
X121620000Y-110000000D03*
X128120000Y-105500000D03*
X121620000Y-105500000D03*
G04 #@! TD*
G04 #@! TO.C,SW2*
X121000000Y-124500000D03*
X127500000Y-124500000D03*
X121000000Y-129000000D03*
X127500000Y-129000000D03*
G04 #@! TD*
G04 #@! TO.C,SW3*
X121000000Y-136000000D03*
X127500000Y-136000000D03*
X121000000Y-140500000D03*
X127500000Y-140500000D03*
G04 #@! TD*
G04 #@! TO.C,SW4*
X121000000Y-147500000D03*
X127500000Y-147500000D03*
X121000000Y-152000000D03*
X127500000Y-152000000D03*
G04 #@! TD*
G04 #@! TO.C,SW1*
X67500000Y-110500000D03*
X61000000Y-110500000D03*
X67500000Y-106000000D03*
X61000000Y-106000000D03*
G04 #@! TD*
D18*
G04 #@! TO.C,C1*
X75000000Y-98500000D03*
D12*
X75000000Y-103500000D03*
G04 #@! TD*
G04 #@! TO.C,R7*
X116500000Y-145880000D03*
X116500000Y-153500000D03*
G04 #@! TD*
G04 #@! TO.C,R6*
X116500000Y-134380000D03*
X116500000Y-142000000D03*
G04 #@! TD*
G04 #@! TO.C,R5*
X116500000Y-122880000D03*
X116500000Y-130500000D03*
G04 #@! TD*
G04 #@! TO.C,R3*
X84250000Y-108000000D03*
X84250000Y-115620000D03*
G04 #@! TD*
G04 #@! TO.C,R1*
X103750000Y-107902651D03*
X103750000Y-115522651D03*
G04 #@! TD*
D14*
G04 #@! TO.C,D5*
X111500000Y-149750000D03*
D13*
X108960000Y-149750000D03*
G04 #@! TD*
D14*
G04 #@! TO.C,D4*
X111500000Y-138500000D03*
D13*
X108960000Y-138500000D03*
G04 #@! TD*
D14*
G04 #@! TO.C,D3*
X111500000Y-127000000D03*
D13*
X108960000Y-127000000D03*
G04 #@! TD*
M02*
