M48
; DRILL file {KiCad 9.0.2} date 2025-07-01T21:27:39-0700
; FORMAT={-:-/ absolute / metric / decimal}
; #@! TF.CreationDate,2025-07-01T21:27:39-07:00
; #@! TF.GenerationSoftware,Kicad,Pcbnew,9.0.2
; #@! TF.FileFunction,Plated,1,2,PTH
FMAT,2
METRIC
; #@! TA.AperFunction,Plated,PTH,ViaDrill
T1C0.300
; #@! TA.AperFunction,Plated,PTH,ComponentDrill
T2C0.750
; #@! TA.AperFunction,Plated,PTH,ComponentDrill
T3C0.800
; #@! TA.AperFunction,Plated,PTH,ComponentDrill
T4C0.900
; #@! TA.AperFunction,Plated,PTH,ComponentDrill
T5C1.100
; #@! TA.AperFunction,Plated,PTH,ViaDrill
T6C5.000
%
G90
G05
T1
X80.0Y-108.0
X91.0Y-108.0
X95.5Y-99.5
X97.5Y-101.5
X106.659Y-128.0
X107.0Y-130.0
X107.4Y-98.0
X114.9Y-122.15
X123.85Y-113.5
X129.3Y-115.35
T2
X79.96Y-109.81
X81.23Y-109.81
X82.5Y-109.81
X88.96Y-110.0
X90.23Y-110.0
X91.5Y-110.0
T3
X83.5Y-98.38
X83.5Y-106.0
X92.5Y-98.38
X92.5Y-106.0
X105.0Y-98.0
X105.0Y-105.62
X116.612Y-120.438
X117.0Y-123.5
X117.0Y-131.12
X117.0Y-134.0
X117.0Y-141.62
X117.0Y-145.0
X117.0Y-152.62
X122.0Y-115.05
T4
X101.5Y-108.62
X101.5Y-111.16
X108.46Y-127.56
X108.46Y-138.0
X108.46Y-148.0
X111.0Y-127.56
X111.0Y-138.0
X111.0Y-148.0
T5
X60.0Y-101.75
X60.0Y-106.25
X66.5Y-101.75
X66.5Y-106.25
X121.0Y-101.5
X121.0Y-106.0
X121.5Y-125.0
X121.5Y-129.5
X121.5Y-135.5
X121.5Y-140.0
X121.5Y-145.5
X121.5Y-150.0
X127.5Y-101.5
X127.5Y-106.0
X128.0Y-125.0
X128.0Y-129.5
X128.0Y-135.5
X128.0Y-140.0
X128.0Y-145.5
X128.0Y-150.0
T6
X69.0Y-92.0
X117.0Y-92.0
M30
