%TF.GenerationSoftware,KiCad,Pcbnew,9.0.2*%
%TF.CreationDate,2025-07-01T21:27:39-07:00*%
%TF.ProjectId,idkwhatimdoing,69646b77-6861-4746-996d-646f696e672e,rev?*%
%TF.SameCoordinates,Original*%
%TF.FileFunction,Drillmap*%
%TF.FilePolarity,Positive*%
%FSLAX45Y45*%
G04 Gerber Fmt 4.5, Leading zero omitted, Abs format (unit mm)*
G04 Created by KiCad (PCBNEW 9.0.2) date 2025-07-01 21:27:39*
%MOMM*%
%LPD*%
G01*
G04 APERTURE LIST*
%ADD10C,0.050000*%
%ADD11C,0.200000*%
G04 APERTURE END LIST*
D10*
X5450000Y-15750000D02*
X5450000Y-9850000D01*
X13200000Y-15750000D02*
X13200000Y-9850000D01*
X13200000Y-9850000D02*
X12000000Y-8650000D01*
X6650000Y-8650000D02*
X12000000Y-8650000D01*
X5450000Y-9850000D02*
X6650000Y-8650000D01*
X5450000Y-15750000D02*
X13200000Y-15750000D01*
D11*
X5708277Y-16063984D02*
X5708277Y-15863984D01*
X5708277Y-15863984D02*
X5755896Y-15863984D01*
X5755896Y-15863984D02*
X5784467Y-15873508D01*
X5784467Y-15873508D02*
X5803515Y-15892555D01*
X5803515Y-15892555D02*
X5813039Y-15911603D01*
X5813039Y-15911603D02*
X5822562Y-15949698D01*
X5822562Y-15949698D02*
X5822562Y-15978269D01*
X5822562Y-15978269D02*
X5813039Y-16016365D01*
X5813039Y-16016365D02*
X5803515Y-16035412D01*
X5803515Y-16035412D02*
X5784467Y-16054460D01*
X5784467Y-16054460D02*
X5755896Y-16063984D01*
X5755896Y-16063984D02*
X5708277Y-16063984D01*
X5908277Y-16063984D02*
X5908277Y-15930650D01*
X5908277Y-15968746D02*
X5917801Y-15949698D01*
X5917801Y-15949698D02*
X5927324Y-15940174D01*
X5927324Y-15940174D02*
X5946372Y-15930650D01*
X5946372Y-15930650D02*
X5965420Y-15930650D01*
X6032086Y-16063984D02*
X6032086Y-15930650D01*
X6032086Y-15863984D02*
X6022562Y-15873508D01*
X6022562Y-15873508D02*
X6032086Y-15883031D01*
X6032086Y-15883031D02*
X6041610Y-15873508D01*
X6041610Y-15873508D02*
X6032086Y-15863984D01*
X6032086Y-15863984D02*
X6032086Y-15883031D01*
X6155896Y-16063984D02*
X6136848Y-16054460D01*
X6136848Y-16054460D02*
X6127324Y-16035412D01*
X6127324Y-16035412D02*
X6127324Y-15863984D01*
X6260658Y-16063984D02*
X6241610Y-16054460D01*
X6241610Y-16054460D02*
X6232086Y-16035412D01*
X6232086Y-16035412D02*
X6232086Y-15863984D01*
X6489229Y-16063984D02*
X6489229Y-15863984D01*
X6489229Y-15863984D02*
X6555896Y-16006841D01*
X6555896Y-16006841D02*
X6622562Y-15863984D01*
X6622562Y-15863984D02*
X6622562Y-16063984D01*
X6803515Y-16063984D02*
X6803515Y-15959222D01*
X6803515Y-15959222D02*
X6793991Y-15940174D01*
X6793991Y-15940174D02*
X6774943Y-15930650D01*
X6774943Y-15930650D02*
X6736848Y-15930650D01*
X6736848Y-15930650D02*
X6717801Y-15940174D01*
X6803515Y-16054460D02*
X6784467Y-16063984D01*
X6784467Y-16063984D02*
X6736848Y-16063984D01*
X6736848Y-16063984D02*
X6717801Y-16054460D01*
X6717801Y-16054460D02*
X6708277Y-16035412D01*
X6708277Y-16035412D02*
X6708277Y-16016365D01*
X6708277Y-16016365D02*
X6717801Y-15997317D01*
X6717801Y-15997317D02*
X6736848Y-15987793D01*
X6736848Y-15987793D02*
X6784467Y-15987793D01*
X6784467Y-15987793D02*
X6803515Y-15978269D01*
X6898753Y-15930650D02*
X6898753Y-16130650D01*
X6898753Y-15940174D02*
X6917801Y-15930650D01*
X6917801Y-15930650D02*
X6955896Y-15930650D01*
X6955896Y-15930650D02*
X6974943Y-15940174D01*
X6974943Y-15940174D02*
X6984467Y-15949698D01*
X6984467Y-15949698D02*
X6993991Y-15968746D01*
X6993991Y-15968746D02*
X6993991Y-16025888D01*
X6993991Y-16025888D02*
X6984467Y-16044936D01*
X6984467Y-16044936D02*
X6974943Y-16054460D01*
X6974943Y-16054460D02*
X6955896Y-16063984D01*
X6955896Y-16063984D02*
X6917801Y-16063984D01*
X6917801Y-16063984D02*
X6898753Y-16054460D01*
X7079705Y-16044936D02*
X7089229Y-16054460D01*
X7089229Y-16054460D02*
X7079705Y-16063984D01*
X7079705Y-16063984D02*
X7070182Y-16054460D01*
X7070182Y-16054460D02*
X7079705Y-16044936D01*
X7079705Y-16044936D02*
X7079705Y-16063984D01*
X7079705Y-15940174D02*
X7089229Y-15949698D01*
X7089229Y-15949698D02*
X7079705Y-15959222D01*
X7079705Y-15959222D02*
X7070182Y-15949698D01*
X7070182Y-15949698D02*
X7079705Y-15940174D01*
X7079705Y-15940174D02*
X7079705Y-15959222D01*
M02*
