G04 #@! TF.GenerationSoftware,KiCad,Pcbnew,9.0.2*
G04 #@! TF.CreationDate,2025-06-30T20:49:54-07:00*
G04 #@! TF.ProjectId,idkwhatimdoing,69646b77-6861-4746-996d-646f696e672e,rev?*
G04 #@! TF.SameCoordinates,Original*
G04 #@! TF.FileFunction,Copper,L2,Bot*
G04 #@! TF.FilePolarity,Positive*
%FSLAX46Y46*%
G04 Gerber Fmt 4.6, Leading zero omitted, Abs format (unit mm)*
G04 Created by KiCad (PCBNEW 9.0.2) date 2025-06-30 20:49:54*
%MOMM*%
%LPD*%
G01*
G04 APERTURE LIST*
G04 Aperture macros list*
%AMRoundRect*
0 Rectangle with rounded corners*
0 $1 Rounding radius*
0 $2 $3 $4 $5 $6 $7 $8 $9 X,Y pos of 4 corners*
0 Add a 4 corners polygon primitive as box body*
4,1,4,$2,$3,$4,$5,$6,$7,$8,$9,$2,$3,0*
0 Add four circle primitives for the rounded corners*
1,1,$1+$1,$2,$3*
1,1,$1+$1,$4,$5*
1,1,$1+$1,$6,$7*
1,1,$1+$1,$8,$9*
0 Add four rect primitives between the rounded corners*
20,1,$1+$1,$2,$3,$4,$5,0*
20,1,$1+$1,$4,$5,$6,$7,0*
20,1,$1+$1,$6,$7,$8,$9,0*
20,1,$1+$1,$8,$9,$2,$3,0*%
G04 Aperture macros list end*
G04 #@! TA.AperFunction,ComponentPad*
%ADD10C,1.600000*%
G04 #@! TD*
G04 #@! TA.AperFunction,ComponentPad*
%ADD11R,1.800000X1.800000*%
G04 #@! TD*
G04 #@! TA.AperFunction,ComponentPad*
%ADD12C,1.800000*%
G04 #@! TD*
G04 #@! TA.AperFunction,ComponentPad*
%ADD13R,1.050000X1.500000*%
G04 #@! TD*
G04 #@! TA.AperFunction,ComponentPad*
%ADD14O,1.050000X1.500000*%
G04 #@! TD*
G04 #@! TA.AperFunction,ComponentPad*
%ADD15C,2.000000*%
G04 #@! TD*
G04 #@! TA.AperFunction,ComponentPad*
%ADD16RoundRect,0.250000X-0.550000X0.550000X-0.550000X-0.550000X0.550000X-0.550000X0.550000X0.550000X0*%
G04 #@! TD*
G04 #@! TA.AperFunction,ViaPad*
%ADD17C,5.500000*%
G04 #@! TD*
G04 #@! TA.AperFunction,ViaPad*
%ADD18C,0.600000*%
G04 #@! TD*
G04 #@! TA.AperFunction,Conductor*
%ADD19C,0.200000*%
G04 #@! TD*
G04 APERTURE END LIST*
D10*
G04 #@! TO.P,R4,2*
G04 #@! TO.N,Net-(D1-K)*
X90630000Y-107880000D03*
G04 #@! TO.P,R4,1*
G04 #@! TO.N,Net-(Q1-C)*
X90630000Y-115500000D03*
G04 #@! TD*
G04 #@! TO.P,R2,1*
G04 #@! TO.N,Net-(D2-K)*
X97000000Y-108000000D03*
G04 #@! TO.P,R2,2*
G04 #@! TO.N,Net-(Q1-C)*
X97000000Y-115620000D03*
G04 #@! TD*
D11*
G04 #@! TO.P,D1,1,K*
G04 #@! TO.N,Net-(D1-K)*
X88710000Y-100500000D03*
D12*
G04 #@! TO.P,D1,2,A*
G04 #@! TO.N,Net-(D1-A)*
X91250000Y-100500000D03*
G04 #@! TD*
D11*
G04 #@! TO.P,D2,1,K*
G04 #@! TO.N,Net-(D2-K)*
X97210000Y-100500000D03*
D12*
G04 #@! TO.P,D2,2,A*
G04 #@! TO.N,Net-(D1-A)*
X99750000Y-100500000D03*
G04 #@! TD*
D13*
G04 #@! TO.P,Q1,1,E*
G04 #@! TO.N,Net-(BT1--)*
X83960000Y-122500000D03*
D14*
G04 #@! TO.P,Q1,2,B*
G04 #@! TO.N,Net-(Q1-B)*
X85230000Y-122500000D03*
G04 #@! TO.P,Q1,3,C*
G04 #@! TO.N,Net-(Q1-C)*
X86500000Y-122500000D03*
G04 #@! TD*
D15*
G04 #@! TO.P,SW5,2,2*
G04 #@! TO.N,Net-(R1-Pad1)*
X128120000Y-110000000D03*
X121620000Y-110000000D03*
G04 #@! TO.P,SW5,1,1*
G04 #@! TO.N,Net-(BT1-+)*
X128120000Y-105500000D03*
X121620000Y-105500000D03*
G04 #@! TD*
G04 #@! TO.P,SW2,1,1*
G04 #@! TO.N,Net-(BT1--)*
X121000000Y-124500000D03*
X127500000Y-124500000D03*
G04 #@! TO.P,SW2,2,2*
G04 #@! TO.N,Net-(D3-K)*
X121000000Y-129000000D03*
X127500000Y-129000000D03*
G04 #@! TD*
G04 #@! TO.P,SW3,1,1*
G04 #@! TO.N,Net-(BT1--)*
X121000000Y-136000000D03*
X127500000Y-136000000D03*
G04 #@! TO.P,SW3,2,2*
G04 #@! TO.N,Net-(D4-K)*
X121000000Y-140500000D03*
X127500000Y-140500000D03*
G04 #@! TD*
G04 #@! TO.P,SW4,1,1*
G04 #@! TO.N,Net-(BT1--)*
X121000000Y-147500000D03*
X127500000Y-147500000D03*
G04 #@! TO.P,SW4,2,2*
G04 #@! TO.N,Net-(D5-K)*
X121000000Y-152000000D03*
X127500000Y-152000000D03*
G04 #@! TD*
G04 #@! TO.P,SW1,1,1*
G04 #@! TO.N,Net-(BT1-+)*
X67500000Y-110500000D03*
X61000000Y-110500000D03*
G04 #@! TO.P,SW1,2,2*
G04 #@! TO.N,Net-(R1-Pad1)*
X67500000Y-106000000D03*
X61000000Y-106000000D03*
G04 #@! TD*
D16*
G04 #@! TO.P,C1,1*
G04 #@! TO.N,Net-(D1-A)*
X75000000Y-98500000D03*
D10*
G04 #@! TO.P,C1,2*
G04 #@! TO.N,Net-(BT1--)*
X75000000Y-103500000D03*
G04 #@! TD*
G04 #@! TO.P,R7,2*
G04 #@! TO.N,Net-(BT1-+)*
X116500000Y-145880000D03*
G04 #@! TO.P,R7,1*
X116500000Y-153500000D03*
G04 #@! TD*
G04 #@! TO.P,R6,2*
G04 #@! TO.N,Net-(BT1-+)*
X116500000Y-134380000D03*
G04 #@! TO.P,R6,1*
G04 #@! TO.N,Net-(D4-A)*
X116500000Y-142000000D03*
G04 #@! TD*
G04 #@! TO.P,R5,2*
G04 #@! TO.N,Net-(D3-A)*
X116500000Y-122880000D03*
G04 #@! TO.P,R5,1*
G04 #@! TO.N,Net-(BT1-+)*
X116500000Y-130500000D03*
G04 #@! TD*
G04 #@! TO.P,R3,2*
G04 #@! TO.N,Net-(D1-A)*
X84250000Y-108000000D03*
G04 #@! TO.P,R3,1*
G04 #@! TO.N,Net-(Q1-B)*
X84250000Y-115620000D03*
G04 #@! TD*
G04 #@! TO.P,R1,2*
G04 #@! TO.N,Net-(D1-A)*
X103750000Y-107902651D03*
G04 #@! TO.P,R1,1*
G04 #@! TO.N,Net-(R1-Pad1)*
X103750000Y-115522651D03*
G04 #@! TD*
D12*
G04 #@! TO.P,D5,2,A*
G04 #@! TO.N,Net-(BT1-+)*
X111500000Y-149750000D03*
D11*
G04 #@! TO.P,D5,1,K*
G04 #@! TO.N,Net-(D5-K)*
X108960000Y-149750000D03*
G04 #@! TD*
D12*
G04 #@! TO.P,D4,2,A*
G04 #@! TO.N,Net-(D4-A)*
X111500000Y-138500000D03*
D11*
G04 #@! TO.P,D4,1,K*
G04 #@! TO.N,Net-(D4-K)*
X108960000Y-138500000D03*
G04 #@! TD*
D12*
G04 #@! TO.P,D3,2,A*
G04 #@! TO.N,Net-(D3-A)*
X111500000Y-127000000D03*
D11*
G04 #@! TO.P,D3,1,K*
G04 #@! TO.N,Net-(D3-K)*
X108960000Y-127000000D03*
G04 #@! TD*
D17*
G04 #@! TO.N,*
X117000000Y-92000000D03*
D18*
G04 #@! TO.N,Net-(BT1--)*
X130500000Y-133000000D03*
D17*
G04 #@! TO.N,*
X69000000Y-92000000D03*
G04 #@! TD*
D19*
G04 #@! TO.N,Net-(BT1--)*
X130500000Y-133000000D02*
X130500000Y-127500000D01*
X130500000Y-127500000D02*
X127500000Y-124500000D01*
G04 #@! TD*
M02*
