G04 #@! TF.GenerationSoftware,KiCad,Pcbnew,9.0.2*
G04 #@! TF.CreationDate,2025-07-02T02:21:06-07:00*
G04 #@! TF.ProjectId,idkwhatimdoing,69646b77-6861-4746-996d-646f696e672e,rev?*
G04 #@! TF.SameCoordinates,Original*
G04 #@! TF.FileFunction,Soldermask,Bot*
G04 #@! TF.FilePolarity,Negative*
%FSLAX46Y46*%
G04 Gerber Fmt 4.6, Leading zero omitted, Abs format (unit mm)*
G04 Created by KiCad (PCBNEW 9.0.2) date 2025-07-02 02:21:06*
%MOMM*%
%LPD*%
G01*
G04 APERTURE LIST*
%ADD10C,2.000000*%
%ADD11C,1.600000*%
%ADD12R,1.800000X1.800000*%
%ADD13C,1.800000*%
%ADD14R,1.050000X1.500000*%
%ADD15O,1.050000X1.500000*%
G04 APERTURE END LIST*
D10*
G04 #@! TO.C,SW1*
X121500000Y-125000000D03*
X128000000Y-125000000D03*
X121500000Y-129500000D03*
X128000000Y-129500000D03*
G04 #@! TD*
D11*
G04 #@! TO.C,R3*
X117000000Y-152620000D03*
X117000000Y-145000000D03*
G04 #@! TD*
D10*
G04 #@! TO.C,SW2*
X121500000Y-135500000D03*
X128000000Y-135500000D03*
X121500000Y-140000000D03*
X128000000Y-140000000D03*
G04 #@! TD*
D12*
G04 #@! TO.C,D1*
X108460000Y-127560000D03*
D13*
X111000000Y-127560000D03*
G04 #@! TD*
D14*
G04 #@! TO.C,Q2*
X88960000Y-110000000D03*
D15*
X90230000Y-110000000D03*
X91500000Y-110000000D03*
G04 #@! TD*
D10*
G04 #@! TO.C,SW3*
X121500000Y-145500000D03*
X128000000Y-145500000D03*
X121500000Y-150000000D03*
X128000000Y-150000000D03*
G04 #@! TD*
D14*
G04 #@! TO.C,Q1*
X79960000Y-109810000D03*
D15*
X81230000Y-109810000D03*
X82500000Y-109810000D03*
G04 #@! TD*
D11*
G04 #@! TO.C,R_AND1*
X105000000Y-105620000D03*
X105000000Y-98000000D03*
G04 #@! TD*
D12*
G04 #@! TO.C,D3*
X108460000Y-148000000D03*
D13*
X111000000Y-148000000D03*
G04 #@! TD*
D11*
G04 #@! TO.C,R_B1*
X92500000Y-106000000D03*
X92500000Y-98380000D03*
G04 #@! TD*
G04 #@! TO.C,R1*
X117000000Y-123500000D03*
X117000000Y-131120000D03*
G04 #@! TD*
D10*
G04 #@! TO.C,SW_A1*
X60000000Y-101750000D03*
X66500000Y-101750000D03*
X60000000Y-106250000D03*
X66500000Y-106250000D03*
G04 #@! TD*
D12*
G04 #@! TO.C,D2*
X108460000Y-138000000D03*
D13*
X111000000Y-138000000D03*
G04 #@! TD*
D12*
G04 #@! TO.C,D_AND1*
X101500000Y-111160000D03*
D13*
X101500000Y-108620000D03*
G04 #@! TD*
D11*
G04 #@! TO.C,R_A1*
X83500000Y-106000000D03*
X83500000Y-98380000D03*
G04 #@! TD*
D10*
G04 #@! TO.C,SW_B1*
X121000000Y-101500000D03*
X127500000Y-101500000D03*
X121000000Y-106000000D03*
X127500000Y-106000000D03*
G04 #@! TD*
D11*
G04 #@! TO.C,R2*
X117000000Y-141620000D03*
X117000000Y-134000000D03*
G04 #@! TD*
M02*
