M48
; DRILL file {KiCad 9.0.2} date 2025-06-30T20:49:54-0700
; FORMAT={-:-/ absolute / metric / decimal}
; #@! TF.CreationDate,2025-06-30T20:49:54-07:00
; #@! TF.GenerationSoftware,Kicad,Pcbnew,9.0.2
; #@! TF.FileFunction,Plated,1,2,PTH
FMAT,2
METRIC
; #@! TA.AperFunction,Plated,PTH,ViaDrill
T1C0.300
; #@! TA.AperFunction,Plated,PTH,ComponentDrill
T2C0.750
; #@! TA.AperFunction,Plated,PTH,ComponentDrill
T3C0.800
; #@! TA.AperFunction,Plated,PTH,ComponentDrill
T4C0.900
; #@! TA.AperFunction,Plated,PTH,ComponentDrill
T5C1.100
; #@! TA.AperFunction,Plated,PTH,ViaDrill
T6C5.000
%
G90
G05
T1
X130.5Y-133.0
T2
X83.96Y-122.5
X85.23Y-122.5
X86.5Y-122.5
T3
X75.0Y-98.5
X75.0Y-103.5
X84.25Y-108.0
X84.25Y-115.62
X90.63Y-107.88
X90.63Y-115.5
X97.0Y-108.0
X97.0Y-115.62
X103.75Y-107.903
X103.75Y-115.523
X116.5Y-122.88
X116.5Y-130.5
X116.5Y-134.38
X116.5Y-142.0
X116.5Y-145.88
X116.5Y-153.5
T4
X88.71Y-100.5
X91.25Y-100.5
X97.21Y-100.5
X99.75Y-100.5
X108.96Y-127.0
X108.96Y-138.5
X108.96Y-149.75
X111.5Y-127.0
X111.5Y-138.5
X111.5Y-149.75
T5
X61.0Y-106.0
X61.0Y-110.5
X67.5Y-106.0
X67.5Y-110.5
X121.0Y-124.5
X121.0Y-129.0
X121.0Y-136.0
X121.0Y-140.5
X121.0Y-147.5
X121.0Y-152.0
X121.62Y-105.5
X121.62Y-110.0
X127.5Y-124.5
X127.5Y-129.0
X127.5Y-136.0
X127.5Y-140.5
X127.5Y-147.5
X127.5Y-152.0
X128.12Y-105.5
X128.12Y-110.0
T6
X69.0Y-92.0
X117.0Y-92.0
M30
