%TF.GenerationSoftware,KiCad,Pcbnew,9.0.2*%
%TF.CreationDate,2025-07-02T04:26:11-07:00*%
%TF.ProjectId,idkwhatimdoing,69646b77-6861-4746-996d-646f696e672e,rev?*%
%TF.SameCoordinates,Original*%
%TF.FileFunction,Drillmap*%
%TF.FilePolarity,Positive*%
%FSLAX45Y45*%
G04 Gerber Fmt 4.5, Leading zero omitted, Abs format (unit mm)*
G04 Created by KiCad (PCBNEW 9.0.2) date 2025-07-02 04:26:11*
%MOMM*%
%LPD*%
G01*
G04 APERTURE LIST*
%ADD10C,0.050000*%
%ADD11C,0.200000*%
%ADD12C,0.100000*%
%ADD13C,0.110000*%
%ADD14C,0.500000*%
G04 APERTURE END LIST*
D10*
X5450000Y-15750000D02*
X5450000Y-9850000D01*
X13200000Y-15750000D02*
X13200000Y-9850000D01*
X13200000Y-9850000D02*
X12000000Y-8650000D01*
X6650000Y-8650000D02*
X12000000Y-8650000D01*
X5450000Y-9850000D02*
X6650000Y-8650000D01*
X5450000Y-15750000D02*
X13200000Y-15750000D01*
D11*
D12*
X7985000Y-10785000D02*
X8015000Y-10815000D01*
X8015000Y-10785000D02*
X7985000Y-10815000D01*
X9085000Y-10785000D02*
X9115000Y-10815000D01*
X9115000Y-10785000D02*
X9085000Y-10815000D01*
X9535000Y-9935000D02*
X9565000Y-9965000D01*
X9565000Y-9935000D02*
X9535000Y-9965000D01*
X9735000Y-10135000D02*
X9765000Y-10165000D01*
X9765000Y-10135000D02*
X9735000Y-10165000D01*
X10650900Y-12785000D02*
X10680900Y-12815000D01*
X10680900Y-12785000D02*
X10650900Y-12815000D01*
X10685000Y-12985000D02*
X10715000Y-13015000D01*
X10715000Y-12985000D02*
X10685000Y-13015000D01*
X8033500Y-10981000D02*
G75*
G02*
X7958500Y-10981000I-37500J0D01*
G01*
X7958500Y-10981000D02*
G75*
G02*
X8033500Y-10981000I37500J0D01*
G01*
X8160500Y-10981000D02*
G75*
G02*
X8085500Y-10981000I-37500J0D01*
G01*
X8085500Y-10981000D02*
G75*
G02*
X8160500Y-10981000I37500J0D01*
G01*
X8287500Y-10981000D02*
G75*
G02*
X8212500Y-10981000I-37500J0D01*
G01*
X8212500Y-10981000D02*
G75*
G02*
X8287500Y-10981000I37500J0D01*
G01*
X8933500Y-11000000D02*
G75*
G02*
X8858500Y-11000000I-37500J0D01*
G01*
X8858500Y-11000000D02*
G75*
G02*
X8933500Y-11000000I37500J0D01*
G01*
X9060500Y-11000000D02*
G75*
G02*
X8985500Y-11000000I-37500J0D01*
G01*
X8985500Y-11000000D02*
G75*
G02*
X9060500Y-11000000I37500J0D01*
G01*
X9187500Y-11000000D02*
G75*
G02*
X9112500Y-11000000I-37500J0D01*
G01*
X9112500Y-11000000D02*
G75*
G02*
X9187500Y-11000000I37500J0D01*
G01*
X8350000Y-9798000D02*
X8350000Y-9878000D01*
X8310000Y-9838000D02*
X8390000Y-9838000D01*
X8350000Y-10560000D02*
X8350000Y-10640000D01*
X8310000Y-10600000D02*
X8390000Y-10600000D01*
X9250000Y-9798000D02*
X9250000Y-9878000D01*
X9210000Y-9838000D02*
X9290000Y-9838000D01*
X9250000Y-10560000D02*
X9250000Y-10640000D01*
X9210000Y-10600000D02*
X9290000Y-10600000D01*
X10500000Y-9760000D02*
X10500000Y-9840000D01*
X10460000Y-9800000D02*
X10540000Y-9800000D01*
X10500000Y-10522000D02*
X10500000Y-10602000D01*
X10460000Y-10562000D02*
X10540000Y-10562000D01*
X11700000Y-12310000D02*
X11700000Y-12390000D01*
X11660000Y-12350000D02*
X11740000Y-12350000D01*
X11700000Y-13072000D02*
X11700000Y-13152000D01*
X11660000Y-13112000D02*
X11740000Y-13112000D01*
X11700000Y-13360000D02*
X11700000Y-13440000D01*
X11660000Y-13400000D02*
X11740000Y-13400000D01*
X11700000Y-14122000D02*
X11700000Y-14202000D01*
X11660000Y-14162000D02*
X11740000Y-14162000D01*
X11700000Y-14460000D02*
X11700000Y-14540000D01*
X11660000Y-14500000D02*
X11740000Y-14500000D01*
X11700000Y-15222000D02*
X11700000Y-15302000D01*
X11660000Y-15262000D02*
X11740000Y-15262000D01*
X11934000Y-11895000D02*
X11934000Y-11975000D01*
X11894000Y-11935000D02*
X11974000Y-11935000D01*
X12696000Y-11895000D02*
X12696000Y-11975000D01*
X12656000Y-11935000D02*
X12736000Y-11935000D01*
X10181820Y-10893820D02*
X10181820Y-10830180D01*
X10118180Y-10830180D01*
X10118180Y-10893820D01*
X10181820Y-10893820D01*
X10181820Y-11147820D02*
X10181820Y-11084180D01*
X10118180Y-11084180D01*
X10118180Y-11147820D01*
X10181820Y-11147820D01*
X10877820Y-12787820D02*
X10877820Y-12724180D01*
X10814180Y-12724180D01*
X10814180Y-12787820D01*
X10877820Y-12787820D01*
X10877820Y-13831820D02*
X10877820Y-13768180D01*
X10814180Y-13768180D01*
X10814180Y-13831820D01*
X10877820Y-13831820D01*
X10877820Y-14831820D02*
X10877820Y-14768180D01*
X10814180Y-14768180D01*
X10814180Y-14831820D01*
X10877820Y-14831820D01*
X11131820Y-12787820D02*
X11131820Y-12724180D01*
X11068180Y-12724180D01*
X11068180Y-12787820D01*
X11131820Y-12787820D01*
X11131820Y-13831820D02*
X11131820Y-13768180D01*
X11068180Y-13768180D01*
X11068180Y-13831820D01*
X11131820Y-13831820D01*
X11131820Y-14831820D02*
X11131820Y-14768180D01*
X11068180Y-14768180D01*
X11068180Y-14831820D01*
X11131820Y-14831820D01*
D13*
X6000000Y-10230000D02*
X6055000Y-10175000D01*
X6000000Y-10120000D01*
X5945000Y-10175000D01*
X6000000Y-10230000D01*
X6000000Y-10680000D02*
X6055000Y-10625000D01*
X6000000Y-10570000D01*
X5945000Y-10625000D01*
X6000000Y-10680000D01*
X6650000Y-10230000D02*
X6705000Y-10175000D01*
X6650000Y-10120000D01*
X6595000Y-10175000D01*
X6650000Y-10230000D01*
X6650000Y-10680000D02*
X6705000Y-10625000D01*
X6650000Y-10570000D01*
X6595000Y-10625000D01*
X6650000Y-10680000D01*
X12100000Y-10205000D02*
X12155000Y-10150000D01*
X12100000Y-10095000D01*
X12045000Y-10150000D01*
X12100000Y-10205000D01*
X12100000Y-10655000D02*
X12155000Y-10600000D01*
X12100000Y-10545000D01*
X12045000Y-10600000D01*
X12100000Y-10655000D01*
X12150000Y-12555000D02*
X12205000Y-12500000D01*
X12150000Y-12445000D01*
X12095000Y-12500000D01*
X12150000Y-12555000D01*
X12150000Y-13005000D02*
X12205000Y-12950000D01*
X12150000Y-12895000D01*
X12095000Y-12950000D01*
X12150000Y-13005000D01*
X12150000Y-13605000D02*
X12205000Y-13550000D01*
X12150000Y-13495000D01*
X12095000Y-13550000D01*
X12150000Y-13605000D01*
X12150000Y-14055000D02*
X12205000Y-14000000D01*
X12150000Y-13945000D01*
X12095000Y-14000000D01*
X12150000Y-14055000D01*
X12150000Y-14605000D02*
X12205000Y-14550000D01*
X12150000Y-14495000D01*
X12095000Y-14550000D01*
X12150000Y-14605000D01*
X12150000Y-15055000D02*
X12205000Y-15000000D01*
X12150000Y-14945000D01*
X12095000Y-15000000D01*
X12150000Y-15055000D01*
X12750000Y-10205000D02*
X12805000Y-10150000D01*
X12750000Y-10095000D01*
X12695000Y-10150000D01*
X12750000Y-10205000D01*
X12750000Y-10655000D02*
X12805000Y-10600000D01*
X12750000Y-10545000D01*
X12695000Y-10600000D01*
X12750000Y-10655000D01*
X12800000Y-12555000D02*
X12855000Y-12500000D01*
X12800000Y-12445000D01*
X12745000Y-12500000D01*
X12800000Y-12555000D01*
X12800000Y-13005000D02*
X12855000Y-12950000D01*
X12800000Y-12895000D01*
X12745000Y-12950000D01*
X12800000Y-13005000D01*
X12800000Y-13605000D02*
X12855000Y-13550000D01*
X12800000Y-13495000D01*
X12745000Y-13550000D01*
X12800000Y-13605000D01*
X12800000Y-14055000D02*
X12855000Y-14000000D01*
X12800000Y-13945000D01*
X12745000Y-14000000D01*
X12800000Y-14055000D01*
X12800000Y-14605000D02*
X12855000Y-14550000D01*
X12800000Y-14495000D01*
X12745000Y-14550000D01*
X12800000Y-14605000D01*
X12800000Y-15055000D02*
X12855000Y-15000000D01*
X12800000Y-14945000D01*
X12745000Y-15000000D01*
X12800000Y-15055000D01*
D14*
X6650000Y-8950000D02*
X7150000Y-9450000D01*
X7150000Y-8950000D02*
X6650000Y-9450000D01*
X7150000Y-9200000D02*
G75*
G02*
X6650000Y-9200000I-250000J0D01*
G01*
X6650000Y-9200000D02*
G75*
G02*
X7150000Y-9200000I250000J0D01*
G01*
X11450000Y-8950000D02*
X11950000Y-9450000D01*
X11950000Y-8950000D02*
X11450000Y-9450000D01*
X11950000Y-9200000D02*
G75*
G02*
X11450000Y-9200000I-250000J0D01*
G01*
X11450000Y-9200000D02*
G75*
G02*
X11950000Y-9200000I250000J0D01*
G01*
D11*
X5708277Y-16063984D02*
X5708277Y-15863984D01*
X5708277Y-15863984D02*
X5755896Y-15863984D01*
X5755896Y-15863984D02*
X5784467Y-15873508D01*
X5784467Y-15873508D02*
X5803515Y-15892555D01*
X5803515Y-15892555D02*
X5813039Y-15911603D01*
X5813039Y-15911603D02*
X5822562Y-15949698D01*
X5822562Y-15949698D02*
X5822562Y-15978269D01*
X5822562Y-15978269D02*
X5813039Y-16016365D01*
X5813039Y-16016365D02*
X5803515Y-16035412D01*
X5803515Y-16035412D02*
X5784467Y-16054460D01*
X5784467Y-16054460D02*
X5755896Y-16063984D01*
X5755896Y-16063984D02*
X5708277Y-16063984D01*
X5908277Y-16063984D02*
X5908277Y-15930650D01*
X5908277Y-15968746D02*
X5917801Y-15949698D01*
X5917801Y-15949698D02*
X5927324Y-15940174D01*
X5927324Y-15940174D02*
X5946372Y-15930650D01*
X5946372Y-15930650D02*
X5965420Y-15930650D01*
X6032086Y-16063984D02*
X6032086Y-15930650D01*
X6032086Y-15863984D02*
X6022562Y-15873508D01*
X6022562Y-15873508D02*
X6032086Y-15883031D01*
X6032086Y-15883031D02*
X6041610Y-15873508D01*
X6041610Y-15873508D02*
X6032086Y-15863984D01*
X6032086Y-15863984D02*
X6032086Y-15883031D01*
X6155896Y-16063984D02*
X6136848Y-16054460D01*
X6136848Y-16054460D02*
X6127324Y-16035412D01*
X6127324Y-16035412D02*
X6127324Y-15863984D01*
X6260658Y-16063984D02*
X6241610Y-16054460D01*
X6241610Y-16054460D02*
X6232086Y-16035412D01*
X6232086Y-16035412D02*
X6232086Y-15863984D01*
X6489229Y-16063984D02*
X6489229Y-15863984D01*
X6489229Y-15863984D02*
X6555896Y-16006841D01*
X6555896Y-16006841D02*
X6622562Y-15863984D01*
X6622562Y-15863984D02*
X6622562Y-16063984D01*
X6803515Y-16063984D02*
X6803515Y-15959222D01*
X6803515Y-15959222D02*
X6793991Y-15940174D01*
X6793991Y-15940174D02*
X6774943Y-15930650D01*
X6774943Y-15930650D02*
X6736848Y-15930650D01*
X6736848Y-15930650D02*
X6717801Y-15940174D01*
X6803515Y-16054460D02*
X6784467Y-16063984D01*
X6784467Y-16063984D02*
X6736848Y-16063984D01*
X6736848Y-16063984D02*
X6717801Y-16054460D01*
X6717801Y-16054460D02*
X6708277Y-16035412D01*
X6708277Y-16035412D02*
X6708277Y-16016365D01*
X6708277Y-16016365D02*
X6717801Y-15997317D01*
X6717801Y-15997317D02*
X6736848Y-15987793D01*
X6736848Y-15987793D02*
X6784467Y-15987793D01*
X6784467Y-15987793D02*
X6803515Y-15978269D01*
X6898753Y-15930650D02*
X6898753Y-16130650D01*
X6898753Y-15940174D02*
X6917801Y-15930650D01*
X6917801Y-15930650D02*
X6955896Y-15930650D01*
X6955896Y-15930650D02*
X6974943Y-15940174D01*
X6974943Y-15940174D02*
X6984467Y-15949698D01*
X6984467Y-15949698D02*
X6993991Y-15968746D01*
X6993991Y-15968746D02*
X6993991Y-16025888D01*
X6993991Y-16025888D02*
X6984467Y-16044936D01*
X6984467Y-16044936D02*
X6974943Y-16054460D01*
X6974943Y-16054460D02*
X6955896Y-16063984D01*
X6955896Y-16063984D02*
X6917801Y-16063984D01*
X6917801Y-16063984D02*
X6898753Y-16054460D01*
X7079705Y-16044936D02*
X7089229Y-16054460D01*
X7089229Y-16054460D02*
X7079705Y-16063984D01*
X7079705Y-16063984D02*
X7070182Y-16054460D01*
X7070182Y-16054460D02*
X7079705Y-16044936D01*
X7079705Y-16044936D02*
X7079705Y-16063984D01*
X7079705Y-15940174D02*
X7089229Y-15949698D01*
X7089229Y-15949698D02*
X7079705Y-15959222D01*
X7079705Y-15959222D02*
X7070182Y-15949698D01*
X7070182Y-15949698D02*
X7079705Y-15940174D01*
X7079705Y-15940174D02*
X7079705Y-15959222D01*
D12*
X5417500Y-16377500D02*
X5447500Y-16407500D01*
X5447500Y-16377500D02*
X5417500Y-16407500D01*
D11*
X5746372Y-16283984D02*
X5765420Y-16283984D01*
X5765420Y-16283984D02*
X5784467Y-16293508D01*
X5784467Y-16293508D02*
X5793991Y-16303031D01*
X5793991Y-16303031D02*
X5803515Y-16322079D01*
X5803515Y-16322079D02*
X5813039Y-16360174D01*
X5813039Y-16360174D02*
X5813039Y-16407793D01*
X5813039Y-16407793D02*
X5803515Y-16445888D01*
X5803515Y-16445888D02*
X5793991Y-16464936D01*
X5793991Y-16464936D02*
X5784467Y-16474460D01*
X5784467Y-16474460D02*
X5765420Y-16483984D01*
X5765420Y-16483984D02*
X5746372Y-16483984D01*
X5746372Y-16483984D02*
X5727324Y-16474460D01*
X5727324Y-16474460D02*
X5717801Y-16464936D01*
X5717801Y-16464936D02*
X5708277Y-16445888D01*
X5708277Y-16445888D02*
X5698753Y-16407793D01*
X5698753Y-16407793D02*
X5698753Y-16360174D01*
X5698753Y-16360174D02*
X5708277Y-16322079D01*
X5708277Y-16322079D02*
X5717801Y-16303031D01*
X5717801Y-16303031D02*
X5727324Y-16293508D01*
X5727324Y-16293508D02*
X5746372Y-16283984D01*
X5898753Y-16464936D02*
X5908277Y-16474460D01*
X5908277Y-16474460D02*
X5898753Y-16483984D01*
X5898753Y-16483984D02*
X5889229Y-16474460D01*
X5889229Y-16474460D02*
X5898753Y-16464936D01*
X5898753Y-16464936D02*
X5898753Y-16483984D01*
X5974943Y-16283984D02*
X6098753Y-16283984D01*
X6098753Y-16283984D02*
X6032086Y-16360174D01*
X6032086Y-16360174D02*
X6060658Y-16360174D01*
X6060658Y-16360174D02*
X6079705Y-16369698D01*
X6079705Y-16369698D02*
X6089229Y-16379222D01*
X6089229Y-16379222D02*
X6098753Y-16398269D01*
X6098753Y-16398269D02*
X6098753Y-16445888D01*
X6098753Y-16445888D02*
X6089229Y-16464936D01*
X6089229Y-16464936D02*
X6079705Y-16474460D01*
X6079705Y-16474460D02*
X6060658Y-16483984D01*
X6060658Y-16483984D02*
X6003515Y-16483984D01*
X6003515Y-16483984D02*
X5984467Y-16474460D01*
X5984467Y-16474460D02*
X5974943Y-16464936D01*
X6222562Y-16283984D02*
X6241610Y-16283984D01*
X6241610Y-16283984D02*
X6260658Y-16293508D01*
X6260658Y-16293508D02*
X6270182Y-16303031D01*
X6270182Y-16303031D02*
X6279705Y-16322079D01*
X6279705Y-16322079D02*
X6289229Y-16360174D01*
X6289229Y-16360174D02*
X6289229Y-16407793D01*
X6289229Y-16407793D02*
X6279705Y-16445888D01*
X6279705Y-16445888D02*
X6270182Y-16464936D01*
X6270182Y-16464936D02*
X6260658Y-16474460D01*
X6260658Y-16474460D02*
X6241610Y-16483984D01*
X6241610Y-16483984D02*
X6222562Y-16483984D01*
X6222562Y-16483984D02*
X6203515Y-16474460D01*
X6203515Y-16474460D02*
X6193991Y-16464936D01*
X6193991Y-16464936D02*
X6184467Y-16445888D01*
X6184467Y-16445888D02*
X6174943Y-16407793D01*
X6174943Y-16407793D02*
X6174943Y-16360174D01*
X6174943Y-16360174D02*
X6184467Y-16322079D01*
X6184467Y-16322079D02*
X6193991Y-16303031D01*
X6193991Y-16303031D02*
X6203515Y-16293508D01*
X6203515Y-16293508D02*
X6222562Y-16283984D01*
X6413039Y-16283984D02*
X6432086Y-16283984D01*
X6432086Y-16283984D02*
X6451134Y-16293508D01*
X6451134Y-16293508D02*
X6460658Y-16303031D01*
X6460658Y-16303031D02*
X6470182Y-16322079D01*
X6470182Y-16322079D02*
X6479705Y-16360174D01*
X6479705Y-16360174D02*
X6479705Y-16407793D01*
X6479705Y-16407793D02*
X6470182Y-16445888D01*
X6470182Y-16445888D02*
X6460658Y-16464936D01*
X6460658Y-16464936D02*
X6451134Y-16474460D01*
X6451134Y-16474460D02*
X6432086Y-16483984D01*
X6432086Y-16483984D02*
X6413039Y-16483984D01*
X6413039Y-16483984D02*
X6393991Y-16474460D01*
X6393991Y-16474460D02*
X6384467Y-16464936D01*
X6384467Y-16464936D02*
X6374943Y-16445888D01*
X6374943Y-16445888D02*
X6365420Y-16407793D01*
X6365420Y-16407793D02*
X6365420Y-16360174D01*
X6365420Y-16360174D02*
X6374943Y-16322079D01*
X6374943Y-16322079D02*
X6384467Y-16303031D01*
X6384467Y-16303031D02*
X6393991Y-16293508D01*
X6393991Y-16293508D02*
X6413039Y-16283984D01*
X6565420Y-16483984D02*
X6565420Y-16350650D01*
X6565420Y-16369698D02*
X6574943Y-16360174D01*
X6574943Y-16360174D02*
X6593991Y-16350650D01*
X6593991Y-16350650D02*
X6622563Y-16350650D01*
X6622563Y-16350650D02*
X6641610Y-16360174D01*
X6641610Y-16360174D02*
X6651134Y-16379222D01*
X6651134Y-16379222D02*
X6651134Y-16483984D01*
X6651134Y-16379222D02*
X6660658Y-16360174D01*
X6660658Y-16360174D02*
X6679705Y-16350650D01*
X6679705Y-16350650D02*
X6708277Y-16350650D01*
X6708277Y-16350650D02*
X6727324Y-16360174D01*
X6727324Y-16360174D02*
X6736848Y-16379222D01*
X6736848Y-16379222D02*
X6736848Y-16483984D01*
X6832086Y-16483984D02*
X6832086Y-16350650D01*
X6832086Y-16369698D02*
X6841610Y-16360174D01*
X6841610Y-16360174D02*
X6860658Y-16350650D01*
X6860658Y-16350650D02*
X6889229Y-16350650D01*
X6889229Y-16350650D02*
X6908277Y-16360174D01*
X6908277Y-16360174D02*
X6917801Y-16379222D01*
X6917801Y-16379222D02*
X6917801Y-16483984D01*
X6917801Y-16379222D02*
X6927324Y-16360174D01*
X6927324Y-16360174D02*
X6946372Y-16350650D01*
X6946372Y-16350650D02*
X6974943Y-16350650D01*
X6974943Y-16350650D02*
X6993991Y-16360174D01*
X6993991Y-16360174D02*
X7003515Y-16379222D01*
X7003515Y-16379222D02*
X7003515Y-16483984D01*
X7393991Y-16274460D02*
X7222563Y-16531603D01*
X7651134Y-16283984D02*
X7670182Y-16283984D01*
X7670182Y-16283984D02*
X7689229Y-16293508D01*
X7689229Y-16293508D02*
X7698753Y-16303031D01*
X7698753Y-16303031D02*
X7708277Y-16322079D01*
X7708277Y-16322079D02*
X7717801Y-16360174D01*
X7717801Y-16360174D02*
X7717801Y-16407793D01*
X7717801Y-16407793D02*
X7708277Y-16445888D01*
X7708277Y-16445888D02*
X7698753Y-16464936D01*
X7698753Y-16464936D02*
X7689229Y-16474460D01*
X7689229Y-16474460D02*
X7670182Y-16483984D01*
X7670182Y-16483984D02*
X7651134Y-16483984D01*
X7651134Y-16483984D02*
X7632086Y-16474460D01*
X7632086Y-16474460D02*
X7622563Y-16464936D01*
X7622563Y-16464936D02*
X7613039Y-16445888D01*
X7613039Y-16445888D02*
X7603515Y-16407793D01*
X7603515Y-16407793D02*
X7603515Y-16360174D01*
X7603515Y-16360174D02*
X7613039Y-16322079D01*
X7613039Y-16322079D02*
X7622563Y-16303031D01*
X7622563Y-16303031D02*
X7632086Y-16293508D01*
X7632086Y-16293508D02*
X7651134Y-16283984D01*
X7803515Y-16464936D02*
X7813039Y-16474460D01*
X7813039Y-16474460D02*
X7803515Y-16483984D01*
X7803515Y-16483984D02*
X7793991Y-16474460D01*
X7793991Y-16474460D02*
X7803515Y-16464936D01*
X7803515Y-16464936D02*
X7803515Y-16483984D01*
X7936848Y-16283984D02*
X7955896Y-16283984D01*
X7955896Y-16283984D02*
X7974944Y-16293508D01*
X7974944Y-16293508D02*
X7984467Y-16303031D01*
X7984467Y-16303031D02*
X7993991Y-16322079D01*
X7993991Y-16322079D02*
X8003515Y-16360174D01*
X8003515Y-16360174D02*
X8003515Y-16407793D01*
X8003515Y-16407793D02*
X7993991Y-16445888D01*
X7993991Y-16445888D02*
X7984467Y-16464936D01*
X7984467Y-16464936D02*
X7974944Y-16474460D01*
X7974944Y-16474460D02*
X7955896Y-16483984D01*
X7955896Y-16483984D02*
X7936848Y-16483984D01*
X7936848Y-16483984D02*
X7917801Y-16474460D01*
X7917801Y-16474460D02*
X7908277Y-16464936D01*
X7908277Y-16464936D02*
X7898753Y-16445888D01*
X7898753Y-16445888D02*
X7889229Y-16407793D01*
X7889229Y-16407793D02*
X7889229Y-16360174D01*
X7889229Y-16360174D02*
X7898753Y-16322079D01*
X7898753Y-16322079D02*
X7908277Y-16303031D01*
X7908277Y-16303031D02*
X7917801Y-16293508D01*
X7917801Y-16293508D02*
X7936848Y-16283984D01*
X8193991Y-16483984D02*
X8079706Y-16483984D01*
X8136848Y-16483984D02*
X8136848Y-16283984D01*
X8136848Y-16283984D02*
X8117801Y-16312555D01*
X8117801Y-16312555D02*
X8098753Y-16331603D01*
X8098753Y-16331603D02*
X8079706Y-16341127D01*
X8384467Y-16483984D02*
X8270182Y-16483984D01*
X8327325Y-16483984D02*
X8327325Y-16283984D01*
X8327325Y-16283984D02*
X8308277Y-16312555D01*
X8308277Y-16312555D02*
X8289229Y-16331603D01*
X8289229Y-16331603D02*
X8270182Y-16341127D01*
X8498753Y-16369698D02*
X8479706Y-16360174D01*
X8479706Y-16360174D02*
X8470182Y-16350650D01*
X8470182Y-16350650D02*
X8460658Y-16331603D01*
X8460658Y-16331603D02*
X8460658Y-16322079D01*
X8460658Y-16322079D02*
X8470182Y-16303031D01*
X8470182Y-16303031D02*
X8479706Y-16293508D01*
X8479706Y-16293508D02*
X8498753Y-16283984D01*
X8498753Y-16283984D02*
X8536849Y-16283984D01*
X8536849Y-16283984D02*
X8555896Y-16293508D01*
X8555896Y-16293508D02*
X8565420Y-16303031D01*
X8565420Y-16303031D02*
X8574944Y-16322079D01*
X8574944Y-16322079D02*
X8574944Y-16331603D01*
X8574944Y-16331603D02*
X8565420Y-16350650D01*
X8565420Y-16350650D02*
X8555896Y-16360174D01*
X8555896Y-16360174D02*
X8536849Y-16369698D01*
X8536849Y-16369698D02*
X8498753Y-16369698D01*
X8498753Y-16369698D02*
X8479706Y-16379222D01*
X8479706Y-16379222D02*
X8470182Y-16388746D01*
X8470182Y-16388746D02*
X8460658Y-16407793D01*
X8460658Y-16407793D02*
X8460658Y-16445888D01*
X8460658Y-16445888D02*
X8470182Y-16464936D01*
X8470182Y-16464936D02*
X8479706Y-16474460D01*
X8479706Y-16474460D02*
X8498753Y-16483984D01*
X8498753Y-16483984D02*
X8536849Y-16483984D01*
X8536849Y-16483984D02*
X8555896Y-16474460D01*
X8555896Y-16474460D02*
X8565420Y-16464936D01*
X8565420Y-16464936D02*
X8574944Y-16445888D01*
X8574944Y-16445888D02*
X8574944Y-16407793D01*
X8574944Y-16407793D02*
X8565420Y-16388746D01*
X8565420Y-16388746D02*
X8555896Y-16379222D01*
X8555896Y-16379222D02*
X8536849Y-16369698D01*
X8651134Y-16283984D02*
X8651134Y-16322079D01*
X8727325Y-16283984D02*
X8727325Y-16322079D01*
X9022563Y-16560174D02*
X9013039Y-16550650D01*
X9013039Y-16550650D02*
X8993991Y-16522079D01*
X8993991Y-16522079D02*
X8984468Y-16503031D01*
X8984468Y-16503031D02*
X8974944Y-16474460D01*
X8974944Y-16474460D02*
X8965420Y-16426841D01*
X8965420Y-16426841D02*
X8965420Y-16388746D01*
X8965420Y-16388746D02*
X8974944Y-16341127D01*
X8974944Y-16341127D02*
X8984468Y-16312555D01*
X8984468Y-16312555D02*
X8993991Y-16293508D01*
X8993991Y-16293508D02*
X9013039Y-16264936D01*
X9013039Y-16264936D02*
X9022563Y-16255412D01*
X9184468Y-16283984D02*
X9146372Y-16283984D01*
X9146372Y-16283984D02*
X9127325Y-16293508D01*
X9127325Y-16293508D02*
X9117801Y-16303031D01*
X9117801Y-16303031D02*
X9098753Y-16331603D01*
X9098753Y-16331603D02*
X9089230Y-16369698D01*
X9089230Y-16369698D02*
X9089230Y-16445888D01*
X9089230Y-16445888D02*
X9098753Y-16464936D01*
X9098753Y-16464936D02*
X9108277Y-16474460D01*
X9108277Y-16474460D02*
X9127325Y-16483984D01*
X9127325Y-16483984D02*
X9165420Y-16483984D01*
X9165420Y-16483984D02*
X9184468Y-16474460D01*
X9184468Y-16474460D02*
X9193991Y-16464936D01*
X9193991Y-16464936D02*
X9203515Y-16445888D01*
X9203515Y-16445888D02*
X9203515Y-16398269D01*
X9203515Y-16398269D02*
X9193991Y-16379222D01*
X9193991Y-16379222D02*
X9184468Y-16369698D01*
X9184468Y-16369698D02*
X9165420Y-16360174D01*
X9165420Y-16360174D02*
X9127325Y-16360174D01*
X9127325Y-16360174D02*
X9108277Y-16369698D01*
X9108277Y-16369698D02*
X9098753Y-16379222D01*
X9098753Y-16379222D02*
X9089230Y-16398269D01*
X9441611Y-16483984D02*
X9441611Y-16283984D01*
X9527325Y-16483984D02*
X9527325Y-16379222D01*
X9527325Y-16379222D02*
X9517801Y-16360174D01*
X9517801Y-16360174D02*
X9498753Y-16350650D01*
X9498753Y-16350650D02*
X9470182Y-16350650D01*
X9470182Y-16350650D02*
X9451134Y-16360174D01*
X9451134Y-16360174D02*
X9441611Y-16369698D01*
X9651134Y-16483984D02*
X9632087Y-16474460D01*
X9632087Y-16474460D02*
X9622563Y-16464936D01*
X9622563Y-16464936D02*
X9613039Y-16445888D01*
X9613039Y-16445888D02*
X9613039Y-16388746D01*
X9613039Y-16388746D02*
X9622563Y-16369698D01*
X9622563Y-16369698D02*
X9632087Y-16360174D01*
X9632087Y-16360174D02*
X9651134Y-16350650D01*
X9651134Y-16350650D02*
X9679706Y-16350650D01*
X9679706Y-16350650D02*
X9698753Y-16360174D01*
X9698753Y-16360174D02*
X9708277Y-16369698D01*
X9708277Y-16369698D02*
X9717801Y-16388746D01*
X9717801Y-16388746D02*
X9717801Y-16445888D01*
X9717801Y-16445888D02*
X9708277Y-16464936D01*
X9708277Y-16464936D02*
X9698753Y-16474460D01*
X9698753Y-16474460D02*
X9679706Y-16483984D01*
X9679706Y-16483984D02*
X9651134Y-16483984D01*
X9832087Y-16483984D02*
X9813039Y-16474460D01*
X9813039Y-16474460D02*
X9803515Y-16455412D01*
X9803515Y-16455412D02*
X9803515Y-16283984D01*
X9984468Y-16474460D02*
X9965420Y-16483984D01*
X9965420Y-16483984D02*
X9927325Y-16483984D01*
X9927325Y-16483984D02*
X9908277Y-16474460D01*
X9908277Y-16474460D02*
X9898753Y-16455412D01*
X9898753Y-16455412D02*
X9898753Y-16379222D01*
X9898753Y-16379222D02*
X9908277Y-16360174D01*
X9908277Y-16360174D02*
X9927325Y-16350650D01*
X9927325Y-16350650D02*
X9965420Y-16350650D01*
X9965420Y-16350650D02*
X9984468Y-16360174D01*
X9984468Y-16360174D02*
X9993992Y-16379222D01*
X9993992Y-16379222D02*
X9993992Y-16398269D01*
X9993992Y-16398269D02*
X9898753Y-16417317D01*
X10070182Y-16474460D02*
X10089230Y-16483984D01*
X10089230Y-16483984D02*
X10127325Y-16483984D01*
X10127325Y-16483984D02*
X10146373Y-16474460D01*
X10146373Y-16474460D02*
X10155896Y-16455412D01*
X10155896Y-16455412D02*
X10155896Y-16445888D01*
X10155896Y-16445888D02*
X10146373Y-16426841D01*
X10146373Y-16426841D02*
X10127325Y-16417317D01*
X10127325Y-16417317D02*
X10098753Y-16417317D01*
X10098753Y-16417317D02*
X10079706Y-16407793D01*
X10079706Y-16407793D02*
X10070182Y-16388746D01*
X10070182Y-16388746D02*
X10070182Y-16379222D01*
X10070182Y-16379222D02*
X10079706Y-16360174D01*
X10079706Y-16360174D02*
X10098753Y-16350650D01*
X10098753Y-16350650D02*
X10127325Y-16350650D01*
X10127325Y-16350650D02*
X10146373Y-16360174D01*
X10222563Y-16560174D02*
X10232087Y-16550650D01*
X10232087Y-16550650D02*
X10251134Y-16522079D01*
X10251134Y-16522079D02*
X10260658Y-16503031D01*
X10260658Y-16503031D02*
X10270182Y-16474460D01*
X10270182Y-16474460D02*
X10279706Y-16426841D01*
X10279706Y-16426841D02*
X10279706Y-16388746D01*
X10279706Y-16388746D02*
X10270182Y-16341127D01*
X10270182Y-16341127D02*
X10260658Y-16312555D01*
X10260658Y-16312555D02*
X10251134Y-16293508D01*
X10251134Y-16293508D02*
X10232087Y-16264936D01*
X10232087Y-16264936D02*
X10222563Y-16255412D01*
D12*
X5447500Y-16656500D02*
G75*
G02*
X5372500Y-16656500I-37500J0D01*
G01*
X5372500Y-16656500D02*
G75*
G02*
X5447500Y-16656500I37500J0D01*
G01*
D11*
X5746372Y-16547984D02*
X5765420Y-16547984D01*
X5765420Y-16547984D02*
X5784467Y-16557508D01*
X5784467Y-16557508D02*
X5793991Y-16567031D01*
X5793991Y-16567031D02*
X5803515Y-16586079D01*
X5803515Y-16586079D02*
X5813039Y-16624174D01*
X5813039Y-16624174D02*
X5813039Y-16671793D01*
X5813039Y-16671793D02*
X5803515Y-16709888D01*
X5803515Y-16709888D02*
X5793991Y-16728936D01*
X5793991Y-16728936D02*
X5784467Y-16738460D01*
X5784467Y-16738460D02*
X5765420Y-16747984D01*
X5765420Y-16747984D02*
X5746372Y-16747984D01*
X5746372Y-16747984D02*
X5727324Y-16738460D01*
X5727324Y-16738460D02*
X5717801Y-16728936D01*
X5717801Y-16728936D02*
X5708277Y-16709888D01*
X5708277Y-16709888D02*
X5698753Y-16671793D01*
X5698753Y-16671793D02*
X5698753Y-16624174D01*
X5698753Y-16624174D02*
X5708277Y-16586079D01*
X5708277Y-16586079D02*
X5717801Y-16567031D01*
X5717801Y-16567031D02*
X5727324Y-16557508D01*
X5727324Y-16557508D02*
X5746372Y-16547984D01*
X5898753Y-16728936D02*
X5908277Y-16738460D01*
X5908277Y-16738460D02*
X5898753Y-16747984D01*
X5898753Y-16747984D02*
X5889229Y-16738460D01*
X5889229Y-16738460D02*
X5898753Y-16728936D01*
X5898753Y-16728936D02*
X5898753Y-16747984D01*
X5974943Y-16547984D02*
X6108277Y-16547984D01*
X6108277Y-16547984D02*
X6022562Y-16747984D01*
X6279705Y-16547984D02*
X6184467Y-16547984D01*
X6184467Y-16547984D02*
X6174943Y-16643222D01*
X6174943Y-16643222D02*
X6184467Y-16633698D01*
X6184467Y-16633698D02*
X6203515Y-16624174D01*
X6203515Y-16624174D02*
X6251134Y-16624174D01*
X6251134Y-16624174D02*
X6270182Y-16633698D01*
X6270182Y-16633698D02*
X6279705Y-16643222D01*
X6279705Y-16643222D02*
X6289229Y-16662269D01*
X6289229Y-16662269D02*
X6289229Y-16709888D01*
X6289229Y-16709888D02*
X6279705Y-16728936D01*
X6279705Y-16728936D02*
X6270182Y-16738460D01*
X6270182Y-16738460D02*
X6251134Y-16747984D01*
X6251134Y-16747984D02*
X6203515Y-16747984D01*
X6203515Y-16747984D02*
X6184467Y-16738460D01*
X6184467Y-16738460D02*
X6174943Y-16728936D01*
X6413039Y-16547984D02*
X6432086Y-16547984D01*
X6432086Y-16547984D02*
X6451134Y-16557508D01*
X6451134Y-16557508D02*
X6460658Y-16567031D01*
X6460658Y-16567031D02*
X6470182Y-16586079D01*
X6470182Y-16586079D02*
X6479705Y-16624174D01*
X6479705Y-16624174D02*
X6479705Y-16671793D01*
X6479705Y-16671793D02*
X6470182Y-16709888D01*
X6470182Y-16709888D02*
X6460658Y-16728936D01*
X6460658Y-16728936D02*
X6451134Y-16738460D01*
X6451134Y-16738460D02*
X6432086Y-16747984D01*
X6432086Y-16747984D02*
X6413039Y-16747984D01*
X6413039Y-16747984D02*
X6393991Y-16738460D01*
X6393991Y-16738460D02*
X6384467Y-16728936D01*
X6384467Y-16728936D02*
X6374943Y-16709888D01*
X6374943Y-16709888D02*
X6365420Y-16671793D01*
X6365420Y-16671793D02*
X6365420Y-16624174D01*
X6365420Y-16624174D02*
X6374943Y-16586079D01*
X6374943Y-16586079D02*
X6384467Y-16567031D01*
X6384467Y-16567031D02*
X6393991Y-16557508D01*
X6393991Y-16557508D02*
X6413039Y-16547984D01*
X6565420Y-16747984D02*
X6565420Y-16614650D01*
X6565420Y-16633698D02*
X6574943Y-16624174D01*
X6574943Y-16624174D02*
X6593991Y-16614650D01*
X6593991Y-16614650D02*
X6622563Y-16614650D01*
X6622563Y-16614650D02*
X6641610Y-16624174D01*
X6641610Y-16624174D02*
X6651134Y-16643222D01*
X6651134Y-16643222D02*
X6651134Y-16747984D01*
X6651134Y-16643222D02*
X6660658Y-16624174D01*
X6660658Y-16624174D02*
X6679705Y-16614650D01*
X6679705Y-16614650D02*
X6708277Y-16614650D01*
X6708277Y-16614650D02*
X6727324Y-16624174D01*
X6727324Y-16624174D02*
X6736848Y-16643222D01*
X6736848Y-16643222D02*
X6736848Y-16747984D01*
X6832086Y-16747984D02*
X6832086Y-16614650D01*
X6832086Y-16633698D02*
X6841610Y-16624174D01*
X6841610Y-16624174D02*
X6860658Y-16614650D01*
X6860658Y-16614650D02*
X6889229Y-16614650D01*
X6889229Y-16614650D02*
X6908277Y-16624174D01*
X6908277Y-16624174D02*
X6917801Y-16643222D01*
X6917801Y-16643222D02*
X6917801Y-16747984D01*
X6917801Y-16643222D02*
X6927324Y-16624174D01*
X6927324Y-16624174D02*
X6946372Y-16614650D01*
X6946372Y-16614650D02*
X6974943Y-16614650D01*
X6974943Y-16614650D02*
X6993991Y-16624174D01*
X6993991Y-16624174D02*
X7003515Y-16643222D01*
X7003515Y-16643222D02*
X7003515Y-16747984D01*
X7393991Y-16538460D02*
X7222563Y-16795603D01*
X7651134Y-16547984D02*
X7670182Y-16547984D01*
X7670182Y-16547984D02*
X7689229Y-16557508D01*
X7689229Y-16557508D02*
X7698753Y-16567031D01*
X7698753Y-16567031D02*
X7708277Y-16586079D01*
X7708277Y-16586079D02*
X7717801Y-16624174D01*
X7717801Y-16624174D02*
X7717801Y-16671793D01*
X7717801Y-16671793D02*
X7708277Y-16709888D01*
X7708277Y-16709888D02*
X7698753Y-16728936D01*
X7698753Y-16728936D02*
X7689229Y-16738460D01*
X7689229Y-16738460D02*
X7670182Y-16747984D01*
X7670182Y-16747984D02*
X7651134Y-16747984D01*
X7651134Y-16747984D02*
X7632086Y-16738460D01*
X7632086Y-16738460D02*
X7622563Y-16728936D01*
X7622563Y-16728936D02*
X7613039Y-16709888D01*
X7613039Y-16709888D02*
X7603515Y-16671793D01*
X7603515Y-16671793D02*
X7603515Y-16624174D01*
X7603515Y-16624174D02*
X7613039Y-16586079D01*
X7613039Y-16586079D02*
X7622563Y-16567031D01*
X7622563Y-16567031D02*
X7632086Y-16557508D01*
X7632086Y-16557508D02*
X7651134Y-16547984D01*
X7803515Y-16728936D02*
X7813039Y-16738460D01*
X7813039Y-16738460D02*
X7803515Y-16747984D01*
X7803515Y-16747984D02*
X7793991Y-16738460D01*
X7793991Y-16738460D02*
X7803515Y-16728936D01*
X7803515Y-16728936D02*
X7803515Y-16747984D01*
X7936848Y-16547984D02*
X7955896Y-16547984D01*
X7955896Y-16547984D02*
X7974944Y-16557508D01*
X7974944Y-16557508D02*
X7984467Y-16567031D01*
X7984467Y-16567031D02*
X7993991Y-16586079D01*
X7993991Y-16586079D02*
X8003515Y-16624174D01*
X8003515Y-16624174D02*
X8003515Y-16671793D01*
X8003515Y-16671793D02*
X7993991Y-16709888D01*
X7993991Y-16709888D02*
X7984467Y-16728936D01*
X7984467Y-16728936D02*
X7974944Y-16738460D01*
X7974944Y-16738460D02*
X7955896Y-16747984D01*
X7955896Y-16747984D02*
X7936848Y-16747984D01*
X7936848Y-16747984D02*
X7917801Y-16738460D01*
X7917801Y-16738460D02*
X7908277Y-16728936D01*
X7908277Y-16728936D02*
X7898753Y-16709888D01*
X7898753Y-16709888D02*
X7889229Y-16671793D01*
X7889229Y-16671793D02*
X7889229Y-16624174D01*
X7889229Y-16624174D02*
X7898753Y-16586079D01*
X7898753Y-16586079D02*
X7908277Y-16567031D01*
X7908277Y-16567031D02*
X7917801Y-16557508D01*
X7917801Y-16557508D02*
X7936848Y-16547984D01*
X8079706Y-16567031D02*
X8089229Y-16557508D01*
X8089229Y-16557508D02*
X8108277Y-16547984D01*
X8108277Y-16547984D02*
X8155896Y-16547984D01*
X8155896Y-16547984D02*
X8174944Y-16557508D01*
X8174944Y-16557508D02*
X8184467Y-16567031D01*
X8184467Y-16567031D02*
X8193991Y-16586079D01*
X8193991Y-16586079D02*
X8193991Y-16605127D01*
X8193991Y-16605127D02*
X8184467Y-16633698D01*
X8184467Y-16633698D02*
X8070182Y-16747984D01*
X8070182Y-16747984D02*
X8193991Y-16747984D01*
X8289229Y-16747984D02*
X8327325Y-16747984D01*
X8327325Y-16747984D02*
X8346372Y-16738460D01*
X8346372Y-16738460D02*
X8355896Y-16728936D01*
X8355896Y-16728936D02*
X8374944Y-16700365D01*
X8374944Y-16700365D02*
X8384467Y-16662269D01*
X8384467Y-16662269D02*
X8384467Y-16586079D01*
X8384467Y-16586079D02*
X8374944Y-16567031D01*
X8374944Y-16567031D02*
X8365420Y-16557508D01*
X8365420Y-16557508D02*
X8346372Y-16547984D01*
X8346372Y-16547984D02*
X8308277Y-16547984D01*
X8308277Y-16547984D02*
X8289229Y-16557508D01*
X8289229Y-16557508D02*
X8279706Y-16567031D01*
X8279706Y-16567031D02*
X8270182Y-16586079D01*
X8270182Y-16586079D02*
X8270182Y-16633698D01*
X8270182Y-16633698D02*
X8279706Y-16652746D01*
X8279706Y-16652746D02*
X8289229Y-16662269D01*
X8289229Y-16662269D02*
X8308277Y-16671793D01*
X8308277Y-16671793D02*
X8346372Y-16671793D01*
X8346372Y-16671793D02*
X8365420Y-16662269D01*
X8365420Y-16662269D02*
X8374944Y-16652746D01*
X8374944Y-16652746D02*
X8384467Y-16633698D01*
X8565420Y-16547984D02*
X8470182Y-16547984D01*
X8470182Y-16547984D02*
X8460658Y-16643222D01*
X8460658Y-16643222D02*
X8470182Y-16633698D01*
X8470182Y-16633698D02*
X8489229Y-16624174D01*
X8489229Y-16624174D02*
X8536849Y-16624174D01*
X8536849Y-16624174D02*
X8555896Y-16633698D01*
X8555896Y-16633698D02*
X8565420Y-16643222D01*
X8565420Y-16643222D02*
X8574944Y-16662269D01*
X8574944Y-16662269D02*
X8574944Y-16709888D01*
X8574944Y-16709888D02*
X8565420Y-16728936D01*
X8565420Y-16728936D02*
X8555896Y-16738460D01*
X8555896Y-16738460D02*
X8536849Y-16747984D01*
X8536849Y-16747984D02*
X8489229Y-16747984D01*
X8489229Y-16747984D02*
X8470182Y-16738460D01*
X8470182Y-16738460D02*
X8460658Y-16728936D01*
X8651134Y-16547984D02*
X8651134Y-16586079D01*
X8727325Y-16547984D02*
X8727325Y-16586079D01*
X9022563Y-16824174D02*
X9013039Y-16814650D01*
X9013039Y-16814650D02*
X8993991Y-16786079D01*
X8993991Y-16786079D02*
X8984468Y-16767031D01*
X8984468Y-16767031D02*
X8974944Y-16738460D01*
X8974944Y-16738460D02*
X8965420Y-16690841D01*
X8965420Y-16690841D02*
X8965420Y-16652746D01*
X8965420Y-16652746D02*
X8974944Y-16605127D01*
X8974944Y-16605127D02*
X8984468Y-16576555D01*
X8984468Y-16576555D02*
X8993991Y-16557508D01*
X8993991Y-16557508D02*
X9013039Y-16528936D01*
X9013039Y-16528936D02*
X9022563Y-16519412D01*
X9184468Y-16547984D02*
X9146372Y-16547984D01*
X9146372Y-16547984D02*
X9127325Y-16557508D01*
X9127325Y-16557508D02*
X9117801Y-16567031D01*
X9117801Y-16567031D02*
X9098753Y-16595603D01*
X9098753Y-16595603D02*
X9089230Y-16633698D01*
X9089230Y-16633698D02*
X9089230Y-16709888D01*
X9089230Y-16709888D02*
X9098753Y-16728936D01*
X9098753Y-16728936D02*
X9108277Y-16738460D01*
X9108277Y-16738460D02*
X9127325Y-16747984D01*
X9127325Y-16747984D02*
X9165420Y-16747984D01*
X9165420Y-16747984D02*
X9184468Y-16738460D01*
X9184468Y-16738460D02*
X9193991Y-16728936D01*
X9193991Y-16728936D02*
X9203515Y-16709888D01*
X9203515Y-16709888D02*
X9203515Y-16662269D01*
X9203515Y-16662269D02*
X9193991Y-16643222D01*
X9193991Y-16643222D02*
X9184468Y-16633698D01*
X9184468Y-16633698D02*
X9165420Y-16624174D01*
X9165420Y-16624174D02*
X9127325Y-16624174D01*
X9127325Y-16624174D02*
X9108277Y-16633698D01*
X9108277Y-16633698D02*
X9098753Y-16643222D01*
X9098753Y-16643222D02*
X9089230Y-16662269D01*
X9441611Y-16747984D02*
X9441611Y-16547984D01*
X9527325Y-16747984D02*
X9527325Y-16643222D01*
X9527325Y-16643222D02*
X9517801Y-16624174D01*
X9517801Y-16624174D02*
X9498753Y-16614650D01*
X9498753Y-16614650D02*
X9470182Y-16614650D01*
X9470182Y-16614650D02*
X9451134Y-16624174D01*
X9451134Y-16624174D02*
X9441611Y-16633698D01*
X9651134Y-16747984D02*
X9632087Y-16738460D01*
X9632087Y-16738460D02*
X9622563Y-16728936D01*
X9622563Y-16728936D02*
X9613039Y-16709888D01*
X9613039Y-16709888D02*
X9613039Y-16652746D01*
X9613039Y-16652746D02*
X9622563Y-16633698D01*
X9622563Y-16633698D02*
X9632087Y-16624174D01*
X9632087Y-16624174D02*
X9651134Y-16614650D01*
X9651134Y-16614650D02*
X9679706Y-16614650D01*
X9679706Y-16614650D02*
X9698753Y-16624174D01*
X9698753Y-16624174D02*
X9708277Y-16633698D01*
X9708277Y-16633698D02*
X9717801Y-16652746D01*
X9717801Y-16652746D02*
X9717801Y-16709888D01*
X9717801Y-16709888D02*
X9708277Y-16728936D01*
X9708277Y-16728936D02*
X9698753Y-16738460D01*
X9698753Y-16738460D02*
X9679706Y-16747984D01*
X9679706Y-16747984D02*
X9651134Y-16747984D01*
X9832087Y-16747984D02*
X9813039Y-16738460D01*
X9813039Y-16738460D02*
X9803515Y-16719412D01*
X9803515Y-16719412D02*
X9803515Y-16547984D01*
X9984468Y-16738460D02*
X9965420Y-16747984D01*
X9965420Y-16747984D02*
X9927325Y-16747984D01*
X9927325Y-16747984D02*
X9908277Y-16738460D01*
X9908277Y-16738460D02*
X9898753Y-16719412D01*
X9898753Y-16719412D02*
X9898753Y-16643222D01*
X9898753Y-16643222D02*
X9908277Y-16624174D01*
X9908277Y-16624174D02*
X9927325Y-16614650D01*
X9927325Y-16614650D02*
X9965420Y-16614650D01*
X9965420Y-16614650D02*
X9984468Y-16624174D01*
X9984468Y-16624174D02*
X9993992Y-16643222D01*
X9993992Y-16643222D02*
X9993992Y-16662269D01*
X9993992Y-16662269D02*
X9898753Y-16681317D01*
X10070182Y-16738460D02*
X10089230Y-16747984D01*
X10089230Y-16747984D02*
X10127325Y-16747984D01*
X10127325Y-16747984D02*
X10146373Y-16738460D01*
X10146373Y-16738460D02*
X10155896Y-16719412D01*
X10155896Y-16719412D02*
X10155896Y-16709888D01*
X10155896Y-16709888D02*
X10146373Y-16690841D01*
X10146373Y-16690841D02*
X10127325Y-16681317D01*
X10127325Y-16681317D02*
X10098753Y-16681317D01*
X10098753Y-16681317D02*
X10079706Y-16671793D01*
X10079706Y-16671793D02*
X10070182Y-16652746D01*
X10070182Y-16652746D02*
X10070182Y-16643222D01*
X10070182Y-16643222D02*
X10079706Y-16624174D01*
X10079706Y-16624174D02*
X10098753Y-16614650D01*
X10098753Y-16614650D02*
X10127325Y-16614650D01*
X10127325Y-16614650D02*
X10146373Y-16624174D01*
X10222563Y-16824174D02*
X10232087Y-16814650D01*
X10232087Y-16814650D02*
X10251134Y-16786079D01*
X10251134Y-16786079D02*
X10260658Y-16767031D01*
X10260658Y-16767031D02*
X10270182Y-16738460D01*
X10270182Y-16738460D02*
X10279706Y-16690841D01*
X10279706Y-16690841D02*
X10279706Y-16652746D01*
X10279706Y-16652746D02*
X10270182Y-16605127D01*
X10270182Y-16605127D02*
X10260658Y-16576555D01*
X10260658Y-16576555D02*
X10251134Y-16557508D01*
X10251134Y-16557508D02*
X10232087Y-16528936D01*
X10232087Y-16528936D02*
X10222563Y-16519412D01*
D12*
X5407500Y-16880500D02*
X5407500Y-16960500D01*
X5367500Y-16920500D02*
X5447500Y-16920500D01*
D11*
X5746372Y-16811984D02*
X5765420Y-16811984D01*
X5765420Y-16811984D02*
X5784467Y-16821508D01*
X5784467Y-16821508D02*
X5793991Y-16831031D01*
X5793991Y-16831031D02*
X5803515Y-16850079D01*
X5803515Y-16850079D02*
X5813039Y-16888174D01*
X5813039Y-16888174D02*
X5813039Y-16935793D01*
X5813039Y-16935793D02*
X5803515Y-16973889D01*
X5803515Y-16973889D02*
X5793991Y-16992936D01*
X5793991Y-16992936D02*
X5784467Y-17002460D01*
X5784467Y-17002460D02*
X5765420Y-17011984D01*
X5765420Y-17011984D02*
X5746372Y-17011984D01*
X5746372Y-17011984D02*
X5727324Y-17002460D01*
X5727324Y-17002460D02*
X5717801Y-16992936D01*
X5717801Y-16992936D02*
X5708277Y-16973889D01*
X5708277Y-16973889D02*
X5698753Y-16935793D01*
X5698753Y-16935793D02*
X5698753Y-16888174D01*
X5698753Y-16888174D02*
X5708277Y-16850079D01*
X5708277Y-16850079D02*
X5717801Y-16831031D01*
X5717801Y-16831031D02*
X5727324Y-16821508D01*
X5727324Y-16821508D02*
X5746372Y-16811984D01*
X5898753Y-16992936D02*
X5908277Y-17002460D01*
X5908277Y-17002460D02*
X5898753Y-17011984D01*
X5898753Y-17011984D02*
X5889229Y-17002460D01*
X5889229Y-17002460D02*
X5898753Y-16992936D01*
X5898753Y-16992936D02*
X5898753Y-17011984D01*
X6022562Y-16897698D02*
X6003515Y-16888174D01*
X6003515Y-16888174D02*
X5993991Y-16878650D01*
X5993991Y-16878650D02*
X5984467Y-16859603D01*
X5984467Y-16859603D02*
X5984467Y-16850079D01*
X5984467Y-16850079D02*
X5993991Y-16831031D01*
X5993991Y-16831031D02*
X6003515Y-16821508D01*
X6003515Y-16821508D02*
X6022562Y-16811984D01*
X6022562Y-16811984D02*
X6060658Y-16811984D01*
X6060658Y-16811984D02*
X6079705Y-16821508D01*
X6079705Y-16821508D02*
X6089229Y-16831031D01*
X6089229Y-16831031D02*
X6098753Y-16850079D01*
X6098753Y-16850079D02*
X6098753Y-16859603D01*
X6098753Y-16859603D02*
X6089229Y-16878650D01*
X6089229Y-16878650D02*
X6079705Y-16888174D01*
X6079705Y-16888174D02*
X6060658Y-16897698D01*
X6060658Y-16897698D02*
X6022562Y-16897698D01*
X6022562Y-16897698D02*
X6003515Y-16907222D01*
X6003515Y-16907222D02*
X5993991Y-16916746D01*
X5993991Y-16916746D02*
X5984467Y-16935793D01*
X5984467Y-16935793D02*
X5984467Y-16973889D01*
X5984467Y-16973889D02*
X5993991Y-16992936D01*
X5993991Y-16992936D02*
X6003515Y-17002460D01*
X6003515Y-17002460D02*
X6022562Y-17011984D01*
X6022562Y-17011984D02*
X6060658Y-17011984D01*
X6060658Y-17011984D02*
X6079705Y-17002460D01*
X6079705Y-17002460D02*
X6089229Y-16992936D01*
X6089229Y-16992936D02*
X6098753Y-16973889D01*
X6098753Y-16973889D02*
X6098753Y-16935793D01*
X6098753Y-16935793D02*
X6089229Y-16916746D01*
X6089229Y-16916746D02*
X6079705Y-16907222D01*
X6079705Y-16907222D02*
X6060658Y-16897698D01*
X6222562Y-16811984D02*
X6241610Y-16811984D01*
X6241610Y-16811984D02*
X6260658Y-16821508D01*
X6260658Y-16821508D02*
X6270182Y-16831031D01*
X6270182Y-16831031D02*
X6279705Y-16850079D01*
X6279705Y-16850079D02*
X6289229Y-16888174D01*
X6289229Y-16888174D02*
X6289229Y-16935793D01*
X6289229Y-16935793D02*
X6279705Y-16973889D01*
X6279705Y-16973889D02*
X6270182Y-16992936D01*
X6270182Y-16992936D02*
X6260658Y-17002460D01*
X6260658Y-17002460D02*
X6241610Y-17011984D01*
X6241610Y-17011984D02*
X6222562Y-17011984D01*
X6222562Y-17011984D02*
X6203515Y-17002460D01*
X6203515Y-17002460D02*
X6193991Y-16992936D01*
X6193991Y-16992936D02*
X6184467Y-16973889D01*
X6184467Y-16973889D02*
X6174943Y-16935793D01*
X6174943Y-16935793D02*
X6174943Y-16888174D01*
X6174943Y-16888174D02*
X6184467Y-16850079D01*
X6184467Y-16850079D02*
X6193991Y-16831031D01*
X6193991Y-16831031D02*
X6203515Y-16821508D01*
X6203515Y-16821508D02*
X6222562Y-16811984D01*
X6413039Y-16811984D02*
X6432086Y-16811984D01*
X6432086Y-16811984D02*
X6451134Y-16821508D01*
X6451134Y-16821508D02*
X6460658Y-16831031D01*
X6460658Y-16831031D02*
X6470182Y-16850079D01*
X6470182Y-16850079D02*
X6479705Y-16888174D01*
X6479705Y-16888174D02*
X6479705Y-16935793D01*
X6479705Y-16935793D02*
X6470182Y-16973889D01*
X6470182Y-16973889D02*
X6460658Y-16992936D01*
X6460658Y-16992936D02*
X6451134Y-17002460D01*
X6451134Y-17002460D02*
X6432086Y-17011984D01*
X6432086Y-17011984D02*
X6413039Y-17011984D01*
X6413039Y-17011984D02*
X6393991Y-17002460D01*
X6393991Y-17002460D02*
X6384467Y-16992936D01*
X6384467Y-16992936D02*
X6374943Y-16973889D01*
X6374943Y-16973889D02*
X6365420Y-16935793D01*
X6365420Y-16935793D02*
X6365420Y-16888174D01*
X6365420Y-16888174D02*
X6374943Y-16850079D01*
X6374943Y-16850079D02*
X6384467Y-16831031D01*
X6384467Y-16831031D02*
X6393991Y-16821508D01*
X6393991Y-16821508D02*
X6413039Y-16811984D01*
X6565420Y-17011984D02*
X6565420Y-16878650D01*
X6565420Y-16897698D02*
X6574943Y-16888174D01*
X6574943Y-16888174D02*
X6593991Y-16878650D01*
X6593991Y-16878650D02*
X6622563Y-16878650D01*
X6622563Y-16878650D02*
X6641610Y-16888174D01*
X6641610Y-16888174D02*
X6651134Y-16907222D01*
X6651134Y-16907222D02*
X6651134Y-17011984D01*
X6651134Y-16907222D02*
X6660658Y-16888174D01*
X6660658Y-16888174D02*
X6679705Y-16878650D01*
X6679705Y-16878650D02*
X6708277Y-16878650D01*
X6708277Y-16878650D02*
X6727324Y-16888174D01*
X6727324Y-16888174D02*
X6736848Y-16907222D01*
X6736848Y-16907222D02*
X6736848Y-17011984D01*
X6832086Y-17011984D02*
X6832086Y-16878650D01*
X6832086Y-16897698D02*
X6841610Y-16888174D01*
X6841610Y-16888174D02*
X6860658Y-16878650D01*
X6860658Y-16878650D02*
X6889229Y-16878650D01*
X6889229Y-16878650D02*
X6908277Y-16888174D01*
X6908277Y-16888174D02*
X6917801Y-16907222D01*
X6917801Y-16907222D02*
X6917801Y-17011984D01*
X6917801Y-16907222D02*
X6927324Y-16888174D01*
X6927324Y-16888174D02*
X6946372Y-16878650D01*
X6946372Y-16878650D02*
X6974943Y-16878650D01*
X6974943Y-16878650D02*
X6993991Y-16888174D01*
X6993991Y-16888174D02*
X7003515Y-16907222D01*
X7003515Y-16907222D02*
X7003515Y-17011984D01*
X7393991Y-16802460D02*
X7222563Y-17059603D01*
X7651134Y-16811984D02*
X7670182Y-16811984D01*
X7670182Y-16811984D02*
X7689229Y-16821508D01*
X7689229Y-16821508D02*
X7698753Y-16831031D01*
X7698753Y-16831031D02*
X7708277Y-16850079D01*
X7708277Y-16850079D02*
X7717801Y-16888174D01*
X7717801Y-16888174D02*
X7717801Y-16935793D01*
X7717801Y-16935793D02*
X7708277Y-16973889D01*
X7708277Y-16973889D02*
X7698753Y-16992936D01*
X7698753Y-16992936D02*
X7689229Y-17002460D01*
X7689229Y-17002460D02*
X7670182Y-17011984D01*
X7670182Y-17011984D02*
X7651134Y-17011984D01*
X7651134Y-17011984D02*
X7632086Y-17002460D01*
X7632086Y-17002460D02*
X7622563Y-16992936D01*
X7622563Y-16992936D02*
X7613039Y-16973889D01*
X7613039Y-16973889D02*
X7603515Y-16935793D01*
X7603515Y-16935793D02*
X7603515Y-16888174D01*
X7603515Y-16888174D02*
X7613039Y-16850079D01*
X7613039Y-16850079D02*
X7622563Y-16831031D01*
X7622563Y-16831031D02*
X7632086Y-16821508D01*
X7632086Y-16821508D02*
X7651134Y-16811984D01*
X7803515Y-16992936D02*
X7813039Y-17002460D01*
X7813039Y-17002460D02*
X7803515Y-17011984D01*
X7803515Y-17011984D02*
X7793991Y-17002460D01*
X7793991Y-17002460D02*
X7803515Y-16992936D01*
X7803515Y-16992936D02*
X7803515Y-17011984D01*
X7936848Y-16811984D02*
X7955896Y-16811984D01*
X7955896Y-16811984D02*
X7974944Y-16821508D01*
X7974944Y-16821508D02*
X7984467Y-16831031D01*
X7984467Y-16831031D02*
X7993991Y-16850079D01*
X7993991Y-16850079D02*
X8003515Y-16888174D01*
X8003515Y-16888174D02*
X8003515Y-16935793D01*
X8003515Y-16935793D02*
X7993991Y-16973889D01*
X7993991Y-16973889D02*
X7984467Y-16992936D01*
X7984467Y-16992936D02*
X7974944Y-17002460D01*
X7974944Y-17002460D02*
X7955896Y-17011984D01*
X7955896Y-17011984D02*
X7936848Y-17011984D01*
X7936848Y-17011984D02*
X7917801Y-17002460D01*
X7917801Y-17002460D02*
X7908277Y-16992936D01*
X7908277Y-16992936D02*
X7898753Y-16973889D01*
X7898753Y-16973889D02*
X7889229Y-16935793D01*
X7889229Y-16935793D02*
X7889229Y-16888174D01*
X7889229Y-16888174D02*
X7898753Y-16850079D01*
X7898753Y-16850079D02*
X7908277Y-16831031D01*
X7908277Y-16831031D02*
X7917801Y-16821508D01*
X7917801Y-16821508D02*
X7936848Y-16811984D01*
X8070182Y-16811984D02*
X8193991Y-16811984D01*
X8193991Y-16811984D02*
X8127325Y-16888174D01*
X8127325Y-16888174D02*
X8155896Y-16888174D01*
X8155896Y-16888174D02*
X8174944Y-16897698D01*
X8174944Y-16897698D02*
X8184467Y-16907222D01*
X8184467Y-16907222D02*
X8193991Y-16926270D01*
X8193991Y-16926270D02*
X8193991Y-16973889D01*
X8193991Y-16973889D02*
X8184467Y-16992936D01*
X8184467Y-16992936D02*
X8174944Y-17002460D01*
X8174944Y-17002460D02*
X8155896Y-17011984D01*
X8155896Y-17011984D02*
X8098753Y-17011984D01*
X8098753Y-17011984D02*
X8079706Y-17002460D01*
X8079706Y-17002460D02*
X8070182Y-16992936D01*
X8384467Y-17011984D02*
X8270182Y-17011984D01*
X8327325Y-17011984D02*
X8327325Y-16811984D01*
X8327325Y-16811984D02*
X8308277Y-16840555D01*
X8308277Y-16840555D02*
X8289229Y-16859603D01*
X8289229Y-16859603D02*
X8270182Y-16869127D01*
X8565420Y-16811984D02*
X8470182Y-16811984D01*
X8470182Y-16811984D02*
X8460658Y-16907222D01*
X8460658Y-16907222D02*
X8470182Y-16897698D01*
X8470182Y-16897698D02*
X8489229Y-16888174D01*
X8489229Y-16888174D02*
X8536849Y-16888174D01*
X8536849Y-16888174D02*
X8555896Y-16897698D01*
X8555896Y-16897698D02*
X8565420Y-16907222D01*
X8565420Y-16907222D02*
X8574944Y-16926270D01*
X8574944Y-16926270D02*
X8574944Y-16973889D01*
X8574944Y-16973889D02*
X8565420Y-16992936D01*
X8565420Y-16992936D02*
X8555896Y-17002460D01*
X8555896Y-17002460D02*
X8536849Y-17011984D01*
X8536849Y-17011984D02*
X8489229Y-17011984D01*
X8489229Y-17011984D02*
X8470182Y-17002460D01*
X8470182Y-17002460D02*
X8460658Y-16992936D01*
X8651134Y-16811984D02*
X8651134Y-16850079D01*
X8727325Y-16811984D02*
X8727325Y-16850079D01*
X9022563Y-17088174D02*
X9013039Y-17078650D01*
X9013039Y-17078650D02*
X8993991Y-17050079D01*
X8993991Y-17050079D02*
X8984468Y-17031031D01*
X8984468Y-17031031D02*
X8974944Y-17002460D01*
X8974944Y-17002460D02*
X8965420Y-16954841D01*
X8965420Y-16954841D02*
X8965420Y-16916746D01*
X8965420Y-16916746D02*
X8974944Y-16869127D01*
X8974944Y-16869127D02*
X8984468Y-16840555D01*
X8984468Y-16840555D02*
X8993991Y-16821508D01*
X8993991Y-16821508D02*
X9013039Y-16792936D01*
X9013039Y-16792936D02*
X9022563Y-16783412D01*
X9203515Y-17011984D02*
X9089230Y-17011984D01*
X9146372Y-17011984D02*
X9146372Y-16811984D01*
X9146372Y-16811984D02*
X9127325Y-16840555D01*
X9127325Y-16840555D02*
X9108277Y-16859603D01*
X9108277Y-16859603D02*
X9089230Y-16869127D01*
X9374944Y-16878650D02*
X9374944Y-17011984D01*
X9327325Y-16802460D02*
X9279706Y-16945317D01*
X9279706Y-16945317D02*
X9403515Y-16945317D01*
X9632087Y-17011984D02*
X9632087Y-16811984D01*
X9717801Y-17011984D02*
X9717801Y-16907222D01*
X9717801Y-16907222D02*
X9708277Y-16888174D01*
X9708277Y-16888174D02*
X9689230Y-16878650D01*
X9689230Y-16878650D02*
X9660658Y-16878650D01*
X9660658Y-16878650D02*
X9641611Y-16888174D01*
X9641611Y-16888174D02*
X9632087Y-16897698D01*
X9841611Y-17011984D02*
X9822563Y-17002460D01*
X9822563Y-17002460D02*
X9813039Y-16992936D01*
X9813039Y-16992936D02*
X9803515Y-16973889D01*
X9803515Y-16973889D02*
X9803515Y-16916746D01*
X9803515Y-16916746D02*
X9813039Y-16897698D01*
X9813039Y-16897698D02*
X9822563Y-16888174D01*
X9822563Y-16888174D02*
X9841611Y-16878650D01*
X9841611Y-16878650D02*
X9870182Y-16878650D01*
X9870182Y-16878650D02*
X9889230Y-16888174D01*
X9889230Y-16888174D02*
X9898753Y-16897698D01*
X9898753Y-16897698D02*
X9908277Y-16916746D01*
X9908277Y-16916746D02*
X9908277Y-16973889D01*
X9908277Y-16973889D02*
X9898753Y-16992936D01*
X9898753Y-16992936D02*
X9889230Y-17002460D01*
X9889230Y-17002460D02*
X9870182Y-17011984D01*
X9870182Y-17011984D02*
X9841611Y-17011984D01*
X10022563Y-17011984D02*
X10003515Y-17002460D01*
X10003515Y-17002460D02*
X9993992Y-16983412D01*
X9993992Y-16983412D02*
X9993992Y-16811984D01*
X10174944Y-17002460D02*
X10155896Y-17011984D01*
X10155896Y-17011984D02*
X10117801Y-17011984D01*
X10117801Y-17011984D02*
X10098753Y-17002460D01*
X10098753Y-17002460D02*
X10089230Y-16983412D01*
X10089230Y-16983412D02*
X10089230Y-16907222D01*
X10089230Y-16907222D02*
X10098753Y-16888174D01*
X10098753Y-16888174D02*
X10117801Y-16878650D01*
X10117801Y-16878650D02*
X10155896Y-16878650D01*
X10155896Y-16878650D02*
X10174944Y-16888174D01*
X10174944Y-16888174D02*
X10184468Y-16907222D01*
X10184468Y-16907222D02*
X10184468Y-16926270D01*
X10184468Y-16926270D02*
X10089230Y-16945317D01*
X10260658Y-17002460D02*
X10279706Y-17011984D01*
X10279706Y-17011984D02*
X10317801Y-17011984D01*
X10317801Y-17011984D02*
X10336849Y-17002460D01*
X10336849Y-17002460D02*
X10346373Y-16983412D01*
X10346373Y-16983412D02*
X10346373Y-16973889D01*
X10346373Y-16973889D02*
X10336849Y-16954841D01*
X10336849Y-16954841D02*
X10317801Y-16945317D01*
X10317801Y-16945317D02*
X10289230Y-16945317D01*
X10289230Y-16945317D02*
X10270182Y-16935793D01*
X10270182Y-16935793D02*
X10260658Y-16916746D01*
X10260658Y-16916746D02*
X10260658Y-16907222D01*
X10260658Y-16907222D02*
X10270182Y-16888174D01*
X10270182Y-16888174D02*
X10289230Y-16878650D01*
X10289230Y-16878650D02*
X10317801Y-16878650D01*
X10317801Y-16878650D02*
X10336849Y-16888174D01*
X10413039Y-17088174D02*
X10422563Y-17078650D01*
X10422563Y-17078650D02*
X10441611Y-17050079D01*
X10441611Y-17050079D02*
X10451134Y-17031031D01*
X10451134Y-17031031D02*
X10460658Y-17002460D01*
X10460658Y-17002460D02*
X10470182Y-16954841D01*
X10470182Y-16954841D02*
X10470182Y-16916746D01*
X10470182Y-16916746D02*
X10460658Y-16869127D01*
X10460658Y-16869127D02*
X10451134Y-16840555D01*
X10451134Y-16840555D02*
X10441611Y-16821508D01*
X10441611Y-16821508D02*
X10422563Y-16792936D01*
X10422563Y-16792936D02*
X10413039Y-16783412D01*
D12*
X5434320Y-17216320D02*
X5434320Y-17152680D01*
X5370680Y-17152680D01*
X5370680Y-17216320D01*
X5434320Y-17216320D01*
D11*
X5746372Y-17075984D02*
X5765420Y-17075984D01*
X5765420Y-17075984D02*
X5784467Y-17085508D01*
X5784467Y-17085508D02*
X5793991Y-17095031D01*
X5793991Y-17095031D02*
X5803515Y-17114079D01*
X5803515Y-17114079D02*
X5813039Y-17152174D01*
X5813039Y-17152174D02*
X5813039Y-17199793D01*
X5813039Y-17199793D02*
X5803515Y-17237889D01*
X5803515Y-17237889D02*
X5793991Y-17256936D01*
X5793991Y-17256936D02*
X5784467Y-17266460D01*
X5784467Y-17266460D02*
X5765420Y-17275984D01*
X5765420Y-17275984D02*
X5746372Y-17275984D01*
X5746372Y-17275984D02*
X5727324Y-17266460D01*
X5727324Y-17266460D02*
X5717801Y-17256936D01*
X5717801Y-17256936D02*
X5708277Y-17237889D01*
X5708277Y-17237889D02*
X5698753Y-17199793D01*
X5698753Y-17199793D02*
X5698753Y-17152174D01*
X5698753Y-17152174D02*
X5708277Y-17114079D01*
X5708277Y-17114079D02*
X5717801Y-17095031D01*
X5717801Y-17095031D02*
X5727324Y-17085508D01*
X5727324Y-17085508D02*
X5746372Y-17075984D01*
X5898753Y-17256936D02*
X5908277Y-17266460D01*
X5908277Y-17266460D02*
X5898753Y-17275984D01*
X5898753Y-17275984D02*
X5889229Y-17266460D01*
X5889229Y-17266460D02*
X5898753Y-17256936D01*
X5898753Y-17256936D02*
X5898753Y-17275984D01*
X6003515Y-17275984D02*
X6041610Y-17275984D01*
X6041610Y-17275984D02*
X6060658Y-17266460D01*
X6060658Y-17266460D02*
X6070182Y-17256936D01*
X6070182Y-17256936D02*
X6089229Y-17228365D01*
X6089229Y-17228365D02*
X6098753Y-17190270D01*
X6098753Y-17190270D02*
X6098753Y-17114079D01*
X6098753Y-17114079D02*
X6089229Y-17095031D01*
X6089229Y-17095031D02*
X6079705Y-17085508D01*
X6079705Y-17085508D02*
X6060658Y-17075984D01*
X6060658Y-17075984D02*
X6022562Y-17075984D01*
X6022562Y-17075984D02*
X6003515Y-17085508D01*
X6003515Y-17085508D02*
X5993991Y-17095031D01*
X5993991Y-17095031D02*
X5984467Y-17114079D01*
X5984467Y-17114079D02*
X5984467Y-17161698D01*
X5984467Y-17161698D02*
X5993991Y-17180746D01*
X5993991Y-17180746D02*
X6003515Y-17190270D01*
X6003515Y-17190270D02*
X6022562Y-17199793D01*
X6022562Y-17199793D02*
X6060658Y-17199793D01*
X6060658Y-17199793D02*
X6079705Y-17190270D01*
X6079705Y-17190270D02*
X6089229Y-17180746D01*
X6089229Y-17180746D02*
X6098753Y-17161698D01*
X6222562Y-17075984D02*
X6241610Y-17075984D01*
X6241610Y-17075984D02*
X6260658Y-17085508D01*
X6260658Y-17085508D02*
X6270182Y-17095031D01*
X6270182Y-17095031D02*
X6279705Y-17114079D01*
X6279705Y-17114079D02*
X6289229Y-17152174D01*
X6289229Y-17152174D02*
X6289229Y-17199793D01*
X6289229Y-17199793D02*
X6279705Y-17237889D01*
X6279705Y-17237889D02*
X6270182Y-17256936D01*
X6270182Y-17256936D02*
X6260658Y-17266460D01*
X6260658Y-17266460D02*
X6241610Y-17275984D01*
X6241610Y-17275984D02*
X6222562Y-17275984D01*
X6222562Y-17275984D02*
X6203515Y-17266460D01*
X6203515Y-17266460D02*
X6193991Y-17256936D01*
X6193991Y-17256936D02*
X6184467Y-17237889D01*
X6184467Y-17237889D02*
X6174943Y-17199793D01*
X6174943Y-17199793D02*
X6174943Y-17152174D01*
X6174943Y-17152174D02*
X6184467Y-17114079D01*
X6184467Y-17114079D02*
X6193991Y-17095031D01*
X6193991Y-17095031D02*
X6203515Y-17085508D01*
X6203515Y-17085508D02*
X6222562Y-17075984D01*
X6413039Y-17075984D02*
X6432086Y-17075984D01*
X6432086Y-17075984D02*
X6451134Y-17085508D01*
X6451134Y-17085508D02*
X6460658Y-17095031D01*
X6460658Y-17095031D02*
X6470182Y-17114079D01*
X6470182Y-17114079D02*
X6479705Y-17152174D01*
X6479705Y-17152174D02*
X6479705Y-17199793D01*
X6479705Y-17199793D02*
X6470182Y-17237889D01*
X6470182Y-17237889D02*
X6460658Y-17256936D01*
X6460658Y-17256936D02*
X6451134Y-17266460D01*
X6451134Y-17266460D02*
X6432086Y-17275984D01*
X6432086Y-17275984D02*
X6413039Y-17275984D01*
X6413039Y-17275984D02*
X6393991Y-17266460D01*
X6393991Y-17266460D02*
X6384467Y-17256936D01*
X6384467Y-17256936D02*
X6374943Y-17237889D01*
X6374943Y-17237889D02*
X6365420Y-17199793D01*
X6365420Y-17199793D02*
X6365420Y-17152174D01*
X6365420Y-17152174D02*
X6374943Y-17114079D01*
X6374943Y-17114079D02*
X6384467Y-17095031D01*
X6384467Y-17095031D02*
X6393991Y-17085508D01*
X6393991Y-17085508D02*
X6413039Y-17075984D01*
X6565420Y-17275984D02*
X6565420Y-17142650D01*
X6565420Y-17161698D02*
X6574943Y-17152174D01*
X6574943Y-17152174D02*
X6593991Y-17142650D01*
X6593991Y-17142650D02*
X6622563Y-17142650D01*
X6622563Y-17142650D02*
X6641610Y-17152174D01*
X6641610Y-17152174D02*
X6651134Y-17171222D01*
X6651134Y-17171222D02*
X6651134Y-17275984D01*
X6651134Y-17171222D02*
X6660658Y-17152174D01*
X6660658Y-17152174D02*
X6679705Y-17142650D01*
X6679705Y-17142650D02*
X6708277Y-17142650D01*
X6708277Y-17142650D02*
X6727324Y-17152174D01*
X6727324Y-17152174D02*
X6736848Y-17171222D01*
X6736848Y-17171222D02*
X6736848Y-17275984D01*
X6832086Y-17275984D02*
X6832086Y-17142650D01*
X6832086Y-17161698D02*
X6841610Y-17152174D01*
X6841610Y-17152174D02*
X6860658Y-17142650D01*
X6860658Y-17142650D02*
X6889229Y-17142650D01*
X6889229Y-17142650D02*
X6908277Y-17152174D01*
X6908277Y-17152174D02*
X6917801Y-17171222D01*
X6917801Y-17171222D02*
X6917801Y-17275984D01*
X6917801Y-17171222D02*
X6927324Y-17152174D01*
X6927324Y-17152174D02*
X6946372Y-17142650D01*
X6946372Y-17142650D02*
X6974943Y-17142650D01*
X6974943Y-17142650D02*
X6993991Y-17152174D01*
X6993991Y-17152174D02*
X7003515Y-17171222D01*
X7003515Y-17171222D02*
X7003515Y-17275984D01*
X7393991Y-17066460D02*
X7222563Y-17323603D01*
X7651134Y-17075984D02*
X7670182Y-17075984D01*
X7670182Y-17075984D02*
X7689229Y-17085508D01*
X7689229Y-17085508D02*
X7698753Y-17095031D01*
X7698753Y-17095031D02*
X7708277Y-17114079D01*
X7708277Y-17114079D02*
X7717801Y-17152174D01*
X7717801Y-17152174D02*
X7717801Y-17199793D01*
X7717801Y-17199793D02*
X7708277Y-17237889D01*
X7708277Y-17237889D02*
X7698753Y-17256936D01*
X7698753Y-17256936D02*
X7689229Y-17266460D01*
X7689229Y-17266460D02*
X7670182Y-17275984D01*
X7670182Y-17275984D02*
X7651134Y-17275984D01*
X7651134Y-17275984D02*
X7632086Y-17266460D01*
X7632086Y-17266460D02*
X7622563Y-17256936D01*
X7622563Y-17256936D02*
X7613039Y-17237889D01*
X7613039Y-17237889D02*
X7603515Y-17199793D01*
X7603515Y-17199793D02*
X7603515Y-17152174D01*
X7603515Y-17152174D02*
X7613039Y-17114079D01*
X7613039Y-17114079D02*
X7622563Y-17095031D01*
X7622563Y-17095031D02*
X7632086Y-17085508D01*
X7632086Y-17085508D02*
X7651134Y-17075984D01*
X7803515Y-17256936D02*
X7813039Y-17266460D01*
X7813039Y-17266460D02*
X7803515Y-17275984D01*
X7803515Y-17275984D02*
X7793991Y-17266460D01*
X7793991Y-17266460D02*
X7803515Y-17256936D01*
X7803515Y-17256936D02*
X7803515Y-17275984D01*
X7936848Y-17075984D02*
X7955896Y-17075984D01*
X7955896Y-17075984D02*
X7974944Y-17085508D01*
X7974944Y-17085508D02*
X7984467Y-17095031D01*
X7984467Y-17095031D02*
X7993991Y-17114079D01*
X7993991Y-17114079D02*
X8003515Y-17152174D01*
X8003515Y-17152174D02*
X8003515Y-17199793D01*
X8003515Y-17199793D02*
X7993991Y-17237889D01*
X7993991Y-17237889D02*
X7984467Y-17256936D01*
X7984467Y-17256936D02*
X7974944Y-17266460D01*
X7974944Y-17266460D02*
X7955896Y-17275984D01*
X7955896Y-17275984D02*
X7936848Y-17275984D01*
X7936848Y-17275984D02*
X7917801Y-17266460D01*
X7917801Y-17266460D02*
X7908277Y-17256936D01*
X7908277Y-17256936D02*
X7898753Y-17237889D01*
X7898753Y-17237889D02*
X7889229Y-17199793D01*
X7889229Y-17199793D02*
X7889229Y-17152174D01*
X7889229Y-17152174D02*
X7898753Y-17114079D01*
X7898753Y-17114079D02*
X7908277Y-17095031D01*
X7908277Y-17095031D02*
X7917801Y-17085508D01*
X7917801Y-17085508D02*
X7936848Y-17075984D01*
X8070182Y-17075984D02*
X8193991Y-17075984D01*
X8193991Y-17075984D02*
X8127325Y-17152174D01*
X8127325Y-17152174D02*
X8155896Y-17152174D01*
X8155896Y-17152174D02*
X8174944Y-17161698D01*
X8174944Y-17161698D02*
X8184467Y-17171222D01*
X8184467Y-17171222D02*
X8193991Y-17190270D01*
X8193991Y-17190270D02*
X8193991Y-17237889D01*
X8193991Y-17237889D02*
X8184467Y-17256936D01*
X8184467Y-17256936D02*
X8174944Y-17266460D01*
X8174944Y-17266460D02*
X8155896Y-17275984D01*
X8155896Y-17275984D02*
X8098753Y-17275984D01*
X8098753Y-17275984D02*
X8079706Y-17266460D01*
X8079706Y-17266460D02*
X8070182Y-17256936D01*
X8374944Y-17075984D02*
X8279706Y-17075984D01*
X8279706Y-17075984D02*
X8270182Y-17171222D01*
X8270182Y-17171222D02*
X8279706Y-17161698D01*
X8279706Y-17161698D02*
X8298753Y-17152174D01*
X8298753Y-17152174D02*
X8346372Y-17152174D01*
X8346372Y-17152174D02*
X8365420Y-17161698D01*
X8365420Y-17161698D02*
X8374944Y-17171222D01*
X8374944Y-17171222D02*
X8384467Y-17190270D01*
X8384467Y-17190270D02*
X8384467Y-17237889D01*
X8384467Y-17237889D02*
X8374944Y-17256936D01*
X8374944Y-17256936D02*
X8365420Y-17266460D01*
X8365420Y-17266460D02*
X8346372Y-17275984D01*
X8346372Y-17275984D02*
X8298753Y-17275984D01*
X8298753Y-17275984D02*
X8279706Y-17266460D01*
X8279706Y-17266460D02*
X8270182Y-17256936D01*
X8555896Y-17142650D02*
X8555896Y-17275984D01*
X8508277Y-17066460D02*
X8460658Y-17209317D01*
X8460658Y-17209317D02*
X8584468Y-17209317D01*
X8651134Y-17075984D02*
X8651134Y-17114079D01*
X8727325Y-17075984D02*
X8727325Y-17114079D01*
X9022563Y-17352174D02*
X9013039Y-17342650D01*
X9013039Y-17342650D02*
X8993991Y-17314079D01*
X8993991Y-17314079D02*
X8984468Y-17295031D01*
X8984468Y-17295031D02*
X8974944Y-17266460D01*
X8974944Y-17266460D02*
X8965420Y-17218841D01*
X8965420Y-17218841D02*
X8965420Y-17180746D01*
X8965420Y-17180746D02*
X8974944Y-17133127D01*
X8974944Y-17133127D02*
X8984468Y-17104555D01*
X8984468Y-17104555D02*
X8993991Y-17085508D01*
X8993991Y-17085508D02*
X9013039Y-17056936D01*
X9013039Y-17056936D02*
X9022563Y-17047412D01*
X9127325Y-17161698D02*
X9108277Y-17152174D01*
X9108277Y-17152174D02*
X9098753Y-17142650D01*
X9098753Y-17142650D02*
X9089230Y-17123603D01*
X9089230Y-17123603D02*
X9089230Y-17114079D01*
X9089230Y-17114079D02*
X9098753Y-17095031D01*
X9098753Y-17095031D02*
X9108277Y-17085508D01*
X9108277Y-17085508D02*
X9127325Y-17075984D01*
X9127325Y-17075984D02*
X9165420Y-17075984D01*
X9165420Y-17075984D02*
X9184468Y-17085508D01*
X9184468Y-17085508D02*
X9193991Y-17095031D01*
X9193991Y-17095031D02*
X9203515Y-17114079D01*
X9203515Y-17114079D02*
X9203515Y-17123603D01*
X9203515Y-17123603D02*
X9193991Y-17142650D01*
X9193991Y-17142650D02*
X9184468Y-17152174D01*
X9184468Y-17152174D02*
X9165420Y-17161698D01*
X9165420Y-17161698D02*
X9127325Y-17161698D01*
X9127325Y-17161698D02*
X9108277Y-17171222D01*
X9108277Y-17171222D02*
X9098753Y-17180746D01*
X9098753Y-17180746D02*
X9089230Y-17199793D01*
X9089230Y-17199793D02*
X9089230Y-17237889D01*
X9089230Y-17237889D02*
X9098753Y-17256936D01*
X9098753Y-17256936D02*
X9108277Y-17266460D01*
X9108277Y-17266460D02*
X9127325Y-17275984D01*
X9127325Y-17275984D02*
X9165420Y-17275984D01*
X9165420Y-17275984D02*
X9184468Y-17266460D01*
X9184468Y-17266460D02*
X9193991Y-17256936D01*
X9193991Y-17256936D02*
X9203515Y-17237889D01*
X9203515Y-17237889D02*
X9203515Y-17199793D01*
X9203515Y-17199793D02*
X9193991Y-17180746D01*
X9193991Y-17180746D02*
X9184468Y-17171222D01*
X9184468Y-17171222D02*
X9165420Y-17161698D01*
X9441611Y-17275984D02*
X9441611Y-17075984D01*
X9527325Y-17275984D02*
X9527325Y-17171222D01*
X9527325Y-17171222D02*
X9517801Y-17152174D01*
X9517801Y-17152174D02*
X9498753Y-17142650D01*
X9498753Y-17142650D02*
X9470182Y-17142650D01*
X9470182Y-17142650D02*
X9451134Y-17152174D01*
X9451134Y-17152174D02*
X9441611Y-17161698D01*
X9651134Y-17275984D02*
X9632087Y-17266460D01*
X9632087Y-17266460D02*
X9622563Y-17256936D01*
X9622563Y-17256936D02*
X9613039Y-17237889D01*
X9613039Y-17237889D02*
X9613039Y-17180746D01*
X9613039Y-17180746D02*
X9622563Y-17161698D01*
X9622563Y-17161698D02*
X9632087Y-17152174D01*
X9632087Y-17152174D02*
X9651134Y-17142650D01*
X9651134Y-17142650D02*
X9679706Y-17142650D01*
X9679706Y-17142650D02*
X9698753Y-17152174D01*
X9698753Y-17152174D02*
X9708277Y-17161698D01*
X9708277Y-17161698D02*
X9717801Y-17180746D01*
X9717801Y-17180746D02*
X9717801Y-17237889D01*
X9717801Y-17237889D02*
X9708277Y-17256936D01*
X9708277Y-17256936D02*
X9698753Y-17266460D01*
X9698753Y-17266460D02*
X9679706Y-17275984D01*
X9679706Y-17275984D02*
X9651134Y-17275984D01*
X9832087Y-17275984D02*
X9813039Y-17266460D01*
X9813039Y-17266460D02*
X9803515Y-17247412D01*
X9803515Y-17247412D02*
X9803515Y-17075984D01*
X9984468Y-17266460D02*
X9965420Y-17275984D01*
X9965420Y-17275984D02*
X9927325Y-17275984D01*
X9927325Y-17275984D02*
X9908277Y-17266460D01*
X9908277Y-17266460D02*
X9898753Y-17247412D01*
X9898753Y-17247412D02*
X9898753Y-17171222D01*
X9898753Y-17171222D02*
X9908277Y-17152174D01*
X9908277Y-17152174D02*
X9927325Y-17142650D01*
X9927325Y-17142650D02*
X9965420Y-17142650D01*
X9965420Y-17142650D02*
X9984468Y-17152174D01*
X9984468Y-17152174D02*
X9993992Y-17171222D01*
X9993992Y-17171222D02*
X9993992Y-17190270D01*
X9993992Y-17190270D02*
X9898753Y-17209317D01*
X10070182Y-17266460D02*
X10089230Y-17275984D01*
X10089230Y-17275984D02*
X10127325Y-17275984D01*
X10127325Y-17275984D02*
X10146373Y-17266460D01*
X10146373Y-17266460D02*
X10155896Y-17247412D01*
X10155896Y-17247412D02*
X10155896Y-17237889D01*
X10155896Y-17237889D02*
X10146373Y-17218841D01*
X10146373Y-17218841D02*
X10127325Y-17209317D01*
X10127325Y-17209317D02*
X10098753Y-17209317D01*
X10098753Y-17209317D02*
X10079706Y-17199793D01*
X10079706Y-17199793D02*
X10070182Y-17180746D01*
X10070182Y-17180746D02*
X10070182Y-17171222D01*
X10070182Y-17171222D02*
X10079706Y-17152174D01*
X10079706Y-17152174D02*
X10098753Y-17142650D01*
X10098753Y-17142650D02*
X10127325Y-17142650D01*
X10127325Y-17142650D02*
X10146373Y-17152174D01*
X10222563Y-17352174D02*
X10232087Y-17342650D01*
X10232087Y-17342650D02*
X10251134Y-17314079D01*
X10251134Y-17314079D02*
X10260658Y-17295031D01*
X10260658Y-17295031D02*
X10270182Y-17266460D01*
X10270182Y-17266460D02*
X10279706Y-17218841D01*
X10279706Y-17218841D02*
X10279706Y-17180746D01*
X10279706Y-17180746D02*
X10270182Y-17133127D01*
X10270182Y-17133127D02*
X10260658Y-17104555D01*
X10260658Y-17104555D02*
X10251134Y-17085508D01*
X10251134Y-17085508D02*
X10232087Y-17056936D01*
X10232087Y-17056936D02*
X10222563Y-17047412D01*
D13*
X5392500Y-17503500D02*
X5447500Y-17448500D01*
X5392500Y-17393500D01*
X5337500Y-17448500D01*
X5392500Y-17503500D01*
D11*
X5813039Y-17539984D02*
X5698753Y-17539984D01*
X5755896Y-17539984D02*
X5755896Y-17339984D01*
X5755896Y-17339984D02*
X5736848Y-17368555D01*
X5736848Y-17368555D02*
X5717801Y-17387603D01*
X5717801Y-17387603D02*
X5698753Y-17397127D01*
X5898753Y-17520936D02*
X5908277Y-17530460D01*
X5908277Y-17530460D02*
X5898753Y-17539984D01*
X5898753Y-17539984D02*
X5889229Y-17530460D01*
X5889229Y-17530460D02*
X5898753Y-17520936D01*
X5898753Y-17520936D02*
X5898753Y-17539984D01*
X6098753Y-17539984D02*
X5984467Y-17539984D01*
X6041610Y-17539984D02*
X6041610Y-17339984D01*
X6041610Y-17339984D02*
X6022562Y-17368555D01*
X6022562Y-17368555D02*
X6003515Y-17387603D01*
X6003515Y-17387603D02*
X5984467Y-17397127D01*
X6222562Y-17339984D02*
X6241610Y-17339984D01*
X6241610Y-17339984D02*
X6260658Y-17349508D01*
X6260658Y-17349508D02*
X6270182Y-17359031D01*
X6270182Y-17359031D02*
X6279705Y-17378079D01*
X6279705Y-17378079D02*
X6289229Y-17416174D01*
X6289229Y-17416174D02*
X6289229Y-17463793D01*
X6289229Y-17463793D02*
X6279705Y-17501889D01*
X6279705Y-17501889D02*
X6270182Y-17520936D01*
X6270182Y-17520936D02*
X6260658Y-17530460D01*
X6260658Y-17530460D02*
X6241610Y-17539984D01*
X6241610Y-17539984D02*
X6222562Y-17539984D01*
X6222562Y-17539984D02*
X6203515Y-17530460D01*
X6203515Y-17530460D02*
X6193991Y-17520936D01*
X6193991Y-17520936D02*
X6184467Y-17501889D01*
X6184467Y-17501889D02*
X6174943Y-17463793D01*
X6174943Y-17463793D02*
X6174943Y-17416174D01*
X6174943Y-17416174D02*
X6184467Y-17378079D01*
X6184467Y-17378079D02*
X6193991Y-17359031D01*
X6193991Y-17359031D02*
X6203515Y-17349508D01*
X6203515Y-17349508D02*
X6222562Y-17339984D01*
X6413039Y-17339984D02*
X6432086Y-17339984D01*
X6432086Y-17339984D02*
X6451134Y-17349508D01*
X6451134Y-17349508D02*
X6460658Y-17359031D01*
X6460658Y-17359031D02*
X6470182Y-17378079D01*
X6470182Y-17378079D02*
X6479705Y-17416174D01*
X6479705Y-17416174D02*
X6479705Y-17463793D01*
X6479705Y-17463793D02*
X6470182Y-17501889D01*
X6470182Y-17501889D02*
X6460658Y-17520936D01*
X6460658Y-17520936D02*
X6451134Y-17530460D01*
X6451134Y-17530460D02*
X6432086Y-17539984D01*
X6432086Y-17539984D02*
X6413039Y-17539984D01*
X6413039Y-17539984D02*
X6393991Y-17530460D01*
X6393991Y-17530460D02*
X6384467Y-17520936D01*
X6384467Y-17520936D02*
X6374943Y-17501889D01*
X6374943Y-17501889D02*
X6365420Y-17463793D01*
X6365420Y-17463793D02*
X6365420Y-17416174D01*
X6365420Y-17416174D02*
X6374943Y-17378079D01*
X6374943Y-17378079D02*
X6384467Y-17359031D01*
X6384467Y-17359031D02*
X6393991Y-17349508D01*
X6393991Y-17349508D02*
X6413039Y-17339984D01*
X6565420Y-17539984D02*
X6565420Y-17406650D01*
X6565420Y-17425698D02*
X6574943Y-17416174D01*
X6574943Y-17416174D02*
X6593991Y-17406650D01*
X6593991Y-17406650D02*
X6622563Y-17406650D01*
X6622563Y-17406650D02*
X6641610Y-17416174D01*
X6641610Y-17416174D02*
X6651134Y-17435222D01*
X6651134Y-17435222D02*
X6651134Y-17539984D01*
X6651134Y-17435222D02*
X6660658Y-17416174D01*
X6660658Y-17416174D02*
X6679705Y-17406650D01*
X6679705Y-17406650D02*
X6708277Y-17406650D01*
X6708277Y-17406650D02*
X6727324Y-17416174D01*
X6727324Y-17416174D02*
X6736848Y-17435222D01*
X6736848Y-17435222D02*
X6736848Y-17539984D01*
X6832086Y-17539984D02*
X6832086Y-17406650D01*
X6832086Y-17425698D02*
X6841610Y-17416174D01*
X6841610Y-17416174D02*
X6860658Y-17406650D01*
X6860658Y-17406650D02*
X6889229Y-17406650D01*
X6889229Y-17406650D02*
X6908277Y-17416174D01*
X6908277Y-17416174D02*
X6917801Y-17435222D01*
X6917801Y-17435222D02*
X6917801Y-17539984D01*
X6917801Y-17435222D02*
X6927324Y-17416174D01*
X6927324Y-17416174D02*
X6946372Y-17406650D01*
X6946372Y-17406650D02*
X6974943Y-17406650D01*
X6974943Y-17406650D02*
X6993991Y-17416174D01*
X6993991Y-17416174D02*
X7003515Y-17435222D01*
X7003515Y-17435222D02*
X7003515Y-17539984D01*
X7393991Y-17330460D02*
X7222563Y-17587603D01*
X7651134Y-17339984D02*
X7670182Y-17339984D01*
X7670182Y-17339984D02*
X7689229Y-17349508D01*
X7689229Y-17349508D02*
X7698753Y-17359031D01*
X7698753Y-17359031D02*
X7708277Y-17378079D01*
X7708277Y-17378079D02*
X7717801Y-17416174D01*
X7717801Y-17416174D02*
X7717801Y-17463793D01*
X7717801Y-17463793D02*
X7708277Y-17501889D01*
X7708277Y-17501889D02*
X7698753Y-17520936D01*
X7698753Y-17520936D02*
X7689229Y-17530460D01*
X7689229Y-17530460D02*
X7670182Y-17539984D01*
X7670182Y-17539984D02*
X7651134Y-17539984D01*
X7651134Y-17539984D02*
X7632086Y-17530460D01*
X7632086Y-17530460D02*
X7622563Y-17520936D01*
X7622563Y-17520936D02*
X7613039Y-17501889D01*
X7613039Y-17501889D02*
X7603515Y-17463793D01*
X7603515Y-17463793D02*
X7603515Y-17416174D01*
X7603515Y-17416174D02*
X7613039Y-17378079D01*
X7613039Y-17378079D02*
X7622563Y-17359031D01*
X7622563Y-17359031D02*
X7632086Y-17349508D01*
X7632086Y-17349508D02*
X7651134Y-17339984D01*
X7803515Y-17520936D02*
X7813039Y-17530460D01*
X7813039Y-17530460D02*
X7803515Y-17539984D01*
X7803515Y-17539984D02*
X7793991Y-17530460D01*
X7793991Y-17530460D02*
X7803515Y-17520936D01*
X7803515Y-17520936D02*
X7803515Y-17539984D01*
X7936848Y-17339984D02*
X7955896Y-17339984D01*
X7955896Y-17339984D02*
X7974944Y-17349508D01*
X7974944Y-17349508D02*
X7984467Y-17359031D01*
X7984467Y-17359031D02*
X7993991Y-17378079D01*
X7993991Y-17378079D02*
X8003515Y-17416174D01*
X8003515Y-17416174D02*
X8003515Y-17463793D01*
X8003515Y-17463793D02*
X7993991Y-17501889D01*
X7993991Y-17501889D02*
X7984467Y-17520936D01*
X7984467Y-17520936D02*
X7974944Y-17530460D01*
X7974944Y-17530460D02*
X7955896Y-17539984D01*
X7955896Y-17539984D02*
X7936848Y-17539984D01*
X7936848Y-17539984D02*
X7917801Y-17530460D01*
X7917801Y-17530460D02*
X7908277Y-17520936D01*
X7908277Y-17520936D02*
X7898753Y-17501889D01*
X7898753Y-17501889D02*
X7889229Y-17463793D01*
X7889229Y-17463793D02*
X7889229Y-17416174D01*
X7889229Y-17416174D02*
X7898753Y-17378079D01*
X7898753Y-17378079D02*
X7908277Y-17359031D01*
X7908277Y-17359031D02*
X7917801Y-17349508D01*
X7917801Y-17349508D02*
X7936848Y-17339984D01*
X8174944Y-17406650D02*
X8174944Y-17539984D01*
X8127325Y-17330460D02*
X8079706Y-17473317D01*
X8079706Y-17473317D02*
X8203515Y-17473317D01*
X8260658Y-17339984D02*
X8384467Y-17339984D01*
X8384467Y-17339984D02*
X8317801Y-17416174D01*
X8317801Y-17416174D02*
X8346372Y-17416174D01*
X8346372Y-17416174D02*
X8365420Y-17425698D01*
X8365420Y-17425698D02*
X8374944Y-17435222D01*
X8374944Y-17435222D02*
X8384467Y-17454270D01*
X8384467Y-17454270D02*
X8384467Y-17501889D01*
X8384467Y-17501889D02*
X8374944Y-17520936D01*
X8374944Y-17520936D02*
X8365420Y-17530460D01*
X8365420Y-17530460D02*
X8346372Y-17539984D01*
X8346372Y-17539984D02*
X8289229Y-17539984D01*
X8289229Y-17539984D02*
X8270182Y-17530460D01*
X8270182Y-17530460D02*
X8260658Y-17520936D01*
X8451134Y-17339984D02*
X8574944Y-17339984D01*
X8574944Y-17339984D02*
X8508277Y-17416174D01*
X8508277Y-17416174D02*
X8536849Y-17416174D01*
X8536849Y-17416174D02*
X8555896Y-17425698D01*
X8555896Y-17425698D02*
X8565420Y-17435222D01*
X8565420Y-17435222D02*
X8574944Y-17454270D01*
X8574944Y-17454270D02*
X8574944Y-17501889D01*
X8574944Y-17501889D02*
X8565420Y-17520936D01*
X8565420Y-17520936D02*
X8555896Y-17530460D01*
X8555896Y-17530460D02*
X8536849Y-17539984D01*
X8536849Y-17539984D02*
X8479706Y-17539984D01*
X8479706Y-17539984D02*
X8460658Y-17530460D01*
X8460658Y-17530460D02*
X8451134Y-17520936D01*
X8651134Y-17339984D02*
X8651134Y-17378079D01*
X8727325Y-17339984D02*
X8727325Y-17378079D01*
X9022563Y-17616174D02*
X9013039Y-17606650D01*
X9013039Y-17606650D02*
X8993991Y-17578079D01*
X8993991Y-17578079D02*
X8984468Y-17559031D01*
X8984468Y-17559031D02*
X8974944Y-17530460D01*
X8974944Y-17530460D02*
X8965420Y-17482841D01*
X8965420Y-17482841D02*
X8965420Y-17444746D01*
X8965420Y-17444746D02*
X8974944Y-17397127D01*
X8974944Y-17397127D02*
X8984468Y-17368555D01*
X8984468Y-17368555D02*
X8993991Y-17349508D01*
X8993991Y-17349508D02*
X9013039Y-17320936D01*
X9013039Y-17320936D02*
X9022563Y-17311412D01*
X9089230Y-17359031D02*
X9098753Y-17349508D01*
X9098753Y-17349508D02*
X9117801Y-17339984D01*
X9117801Y-17339984D02*
X9165420Y-17339984D01*
X9165420Y-17339984D02*
X9184468Y-17349508D01*
X9184468Y-17349508D02*
X9193991Y-17359031D01*
X9193991Y-17359031D02*
X9203515Y-17378079D01*
X9203515Y-17378079D02*
X9203515Y-17397127D01*
X9203515Y-17397127D02*
X9193991Y-17425698D01*
X9193991Y-17425698D02*
X9079706Y-17539984D01*
X9079706Y-17539984D02*
X9203515Y-17539984D01*
X9327325Y-17339984D02*
X9346372Y-17339984D01*
X9346372Y-17339984D02*
X9365420Y-17349508D01*
X9365420Y-17349508D02*
X9374944Y-17359031D01*
X9374944Y-17359031D02*
X9384468Y-17378079D01*
X9384468Y-17378079D02*
X9393991Y-17416174D01*
X9393991Y-17416174D02*
X9393991Y-17463793D01*
X9393991Y-17463793D02*
X9384468Y-17501889D01*
X9384468Y-17501889D02*
X9374944Y-17520936D01*
X9374944Y-17520936D02*
X9365420Y-17530460D01*
X9365420Y-17530460D02*
X9346372Y-17539984D01*
X9346372Y-17539984D02*
X9327325Y-17539984D01*
X9327325Y-17539984D02*
X9308277Y-17530460D01*
X9308277Y-17530460D02*
X9298753Y-17520936D01*
X9298753Y-17520936D02*
X9289230Y-17501889D01*
X9289230Y-17501889D02*
X9279706Y-17463793D01*
X9279706Y-17463793D02*
X9279706Y-17416174D01*
X9279706Y-17416174D02*
X9289230Y-17378079D01*
X9289230Y-17378079D02*
X9298753Y-17359031D01*
X9298753Y-17359031D02*
X9308277Y-17349508D01*
X9308277Y-17349508D02*
X9327325Y-17339984D01*
X9632087Y-17539984D02*
X9632087Y-17339984D01*
X9717801Y-17539984D02*
X9717801Y-17435222D01*
X9717801Y-17435222D02*
X9708277Y-17416174D01*
X9708277Y-17416174D02*
X9689230Y-17406650D01*
X9689230Y-17406650D02*
X9660658Y-17406650D01*
X9660658Y-17406650D02*
X9641611Y-17416174D01*
X9641611Y-17416174D02*
X9632087Y-17425698D01*
X9841611Y-17539984D02*
X9822563Y-17530460D01*
X9822563Y-17530460D02*
X9813039Y-17520936D01*
X9813039Y-17520936D02*
X9803515Y-17501889D01*
X9803515Y-17501889D02*
X9803515Y-17444746D01*
X9803515Y-17444746D02*
X9813039Y-17425698D01*
X9813039Y-17425698D02*
X9822563Y-17416174D01*
X9822563Y-17416174D02*
X9841611Y-17406650D01*
X9841611Y-17406650D02*
X9870182Y-17406650D01*
X9870182Y-17406650D02*
X9889230Y-17416174D01*
X9889230Y-17416174D02*
X9898753Y-17425698D01*
X9898753Y-17425698D02*
X9908277Y-17444746D01*
X9908277Y-17444746D02*
X9908277Y-17501889D01*
X9908277Y-17501889D02*
X9898753Y-17520936D01*
X9898753Y-17520936D02*
X9889230Y-17530460D01*
X9889230Y-17530460D02*
X9870182Y-17539984D01*
X9870182Y-17539984D02*
X9841611Y-17539984D01*
X10022563Y-17539984D02*
X10003515Y-17530460D01*
X10003515Y-17530460D02*
X9993992Y-17511412D01*
X9993992Y-17511412D02*
X9993992Y-17339984D01*
X10174944Y-17530460D02*
X10155896Y-17539984D01*
X10155896Y-17539984D02*
X10117801Y-17539984D01*
X10117801Y-17539984D02*
X10098753Y-17530460D01*
X10098753Y-17530460D02*
X10089230Y-17511412D01*
X10089230Y-17511412D02*
X10089230Y-17435222D01*
X10089230Y-17435222D02*
X10098753Y-17416174D01*
X10098753Y-17416174D02*
X10117801Y-17406650D01*
X10117801Y-17406650D02*
X10155896Y-17406650D01*
X10155896Y-17406650D02*
X10174944Y-17416174D01*
X10174944Y-17416174D02*
X10184468Y-17435222D01*
X10184468Y-17435222D02*
X10184468Y-17454270D01*
X10184468Y-17454270D02*
X10089230Y-17473317D01*
X10260658Y-17530460D02*
X10279706Y-17539984D01*
X10279706Y-17539984D02*
X10317801Y-17539984D01*
X10317801Y-17539984D02*
X10336849Y-17530460D01*
X10336849Y-17530460D02*
X10346373Y-17511412D01*
X10346373Y-17511412D02*
X10346373Y-17501889D01*
X10346373Y-17501889D02*
X10336849Y-17482841D01*
X10336849Y-17482841D02*
X10317801Y-17473317D01*
X10317801Y-17473317D02*
X10289230Y-17473317D01*
X10289230Y-17473317D02*
X10270182Y-17463793D01*
X10270182Y-17463793D02*
X10260658Y-17444746D01*
X10260658Y-17444746D02*
X10260658Y-17435222D01*
X10260658Y-17435222D02*
X10270182Y-17416174D01*
X10270182Y-17416174D02*
X10289230Y-17406650D01*
X10289230Y-17406650D02*
X10317801Y-17406650D01*
X10317801Y-17406650D02*
X10336849Y-17416174D01*
X10413039Y-17616174D02*
X10422563Y-17606650D01*
X10422563Y-17606650D02*
X10441611Y-17578079D01*
X10441611Y-17578079D02*
X10451134Y-17559031D01*
X10451134Y-17559031D02*
X10460658Y-17530460D01*
X10460658Y-17530460D02*
X10470182Y-17482841D01*
X10470182Y-17482841D02*
X10470182Y-17444746D01*
X10470182Y-17444746D02*
X10460658Y-17397127D01*
X10460658Y-17397127D02*
X10451134Y-17368555D01*
X10451134Y-17368555D02*
X10441611Y-17349508D01*
X10441611Y-17349508D02*
X10422563Y-17320936D01*
X10422563Y-17320936D02*
X10413039Y-17311412D01*
X5247500Y-17612500D02*
X5447500Y-17812500D01*
X5447500Y-17612500D02*
X5247500Y-17812500D01*
X5447500Y-17712500D02*
G75*
G02*
X5247500Y-17712500I-100000J0D01*
G01*
X5247500Y-17712500D02*
G75*
G02*
X5447500Y-17712500I100000J0D01*
G01*
X5803515Y-17603984D02*
X5708277Y-17603984D01*
X5708277Y-17603984D02*
X5698753Y-17699222D01*
X5698753Y-17699222D02*
X5708277Y-17689698D01*
X5708277Y-17689698D02*
X5727324Y-17680174D01*
X5727324Y-17680174D02*
X5774943Y-17680174D01*
X5774943Y-17680174D02*
X5793991Y-17689698D01*
X5793991Y-17689698D02*
X5803515Y-17699222D01*
X5803515Y-17699222D02*
X5813039Y-17718270D01*
X5813039Y-17718270D02*
X5813039Y-17765889D01*
X5813039Y-17765889D02*
X5803515Y-17784936D01*
X5803515Y-17784936D02*
X5793991Y-17794460D01*
X5793991Y-17794460D02*
X5774943Y-17803984D01*
X5774943Y-17803984D02*
X5727324Y-17803984D01*
X5727324Y-17803984D02*
X5708277Y-17794460D01*
X5708277Y-17794460D02*
X5698753Y-17784936D01*
X5898753Y-17784936D02*
X5908277Y-17794460D01*
X5908277Y-17794460D02*
X5898753Y-17803984D01*
X5898753Y-17803984D02*
X5889229Y-17794460D01*
X5889229Y-17794460D02*
X5898753Y-17784936D01*
X5898753Y-17784936D02*
X5898753Y-17803984D01*
X6032086Y-17603984D02*
X6051134Y-17603984D01*
X6051134Y-17603984D02*
X6070182Y-17613508D01*
X6070182Y-17613508D02*
X6079705Y-17623031D01*
X6079705Y-17623031D02*
X6089229Y-17642079D01*
X6089229Y-17642079D02*
X6098753Y-17680174D01*
X6098753Y-17680174D02*
X6098753Y-17727793D01*
X6098753Y-17727793D02*
X6089229Y-17765889D01*
X6089229Y-17765889D02*
X6079705Y-17784936D01*
X6079705Y-17784936D02*
X6070182Y-17794460D01*
X6070182Y-17794460D02*
X6051134Y-17803984D01*
X6051134Y-17803984D02*
X6032086Y-17803984D01*
X6032086Y-17803984D02*
X6013039Y-17794460D01*
X6013039Y-17794460D02*
X6003515Y-17784936D01*
X6003515Y-17784936D02*
X5993991Y-17765889D01*
X5993991Y-17765889D02*
X5984467Y-17727793D01*
X5984467Y-17727793D02*
X5984467Y-17680174D01*
X5984467Y-17680174D02*
X5993991Y-17642079D01*
X5993991Y-17642079D02*
X6003515Y-17623031D01*
X6003515Y-17623031D02*
X6013039Y-17613508D01*
X6013039Y-17613508D02*
X6032086Y-17603984D01*
X6222562Y-17603984D02*
X6241610Y-17603984D01*
X6241610Y-17603984D02*
X6260658Y-17613508D01*
X6260658Y-17613508D02*
X6270182Y-17623031D01*
X6270182Y-17623031D02*
X6279705Y-17642079D01*
X6279705Y-17642079D02*
X6289229Y-17680174D01*
X6289229Y-17680174D02*
X6289229Y-17727793D01*
X6289229Y-17727793D02*
X6279705Y-17765889D01*
X6279705Y-17765889D02*
X6270182Y-17784936D01*
X6270182Y-17784936D02*
X6260658Y-17794460D01*
X6260658Y-17794460D02*
X6241610Y-17803984D01*
X6241610Y-17803984D02*
X6222562Y-17803984D01*
X6222562Y-17803984D02*
X6203515Y-17794460D01*
X6203515Y-17794460D02*
X6193991Y-17784936D01*
X6193991Y-17784936D02*
X6184467Y-17765889D01*
X6184467Y-17765889D02*
X6174943Y-17727793D01*
X6174943Y-17727793D02*
X6174943Y-17680174D01*
X6174943Y-17680174D02*
X6184467Y-17642079D01*
X6184467Y-17642079D02*
X6193991Y-17623031D01*
X6193991Y-17623031D02*
X6203515Y-17613508D01*
X6203515Y-17613508D02*
X6222562Y-17603984D01*
X6413039Y-17603984D02*
X6432086Y-17603984D01*
X6432086Y-17603984D02*
X6451134Y-17613508D01*
X6451134Y-17613508D02*
X6460658Y-17623031D01*
X6460658Y-17623031D02*
X6470182Y-17642079D01*
X6470182Y-17642079D02*
X6479705Y-17680174D01*
X6479705Y-17680174D02*
X6479705Y-17727793D01*
X6479705Y-17727793D02*
X6470182Y-17765889D01*
X6470182Y-17765889D02*
X6460658Y-17784936D01*
X6460658Y-17784936D02*
X6451134Y-17794460D01*
X6451134Y-17794460D02*
X6432086Y-17803984D01*
X6432086Y-17803984D02*
X6413039Y-17803984D01*
X6413039Y-17803984D02*
X6393991Y-17794460D01*
X6393991Y-17794460D02*
X6384467Y-17784936D01*
X6384467Y-17784936D02*
X6374943Y-17765889D01*
X6374943Y-17765889D02*
X6365420Y-17727793D01*
X6365420Y-17727793D02*
X6365420Y-17680174D01*
X6365420Y-17680174D02*
X6374943Y-17642079D01*
X6374943Y-17642079D02*
X6384467Y-17623031D01*
X6384467Y-17623031D02*
X6393991Y-17613508D01*
X6393991Y-17613508D02*
X6413039Y-17603984D01*
X6565420Y-17803984D02*
X6565420Y-17670650D01*
X6565420Y-17689698D02*
X6574943Y-17680174D01*
X6574943Y-17680174D02*
X6593991Y-17670650D01*
X6593991Y-17670650D02*
X6622563Y-17670650D01*
X6622563Y-17670650D02*
X6641610Y-17680174D01*
X6641610Y-17680174D02*
X6651134Y-17699222D01*
X6651134Y-17699222D02*
X6651134Y-17803984D01*
X6651134Y-17699222D02*
X6660658Y-17680174D01*
X6660658Y-17680174D02*
X6679705Y-17670650D01*
X6679705Y-17670650D02*
X6708277Y-17670650D01*
X6708277Y-17670650D02*
X6727324Y-17680174D01*
X6727324Y-17680174D02*
X6736848Y-17699222D01*
X6736848Y-17699222D02*
X6736848Y-17803984D01*
X6832086Y-17803984D02*
X6832086Y-17670650D01*
X6832086Y-17689698D02*
X6841610Y-17680174D01*
X6841610Y-17680174D02*
X6860658Y-17670650D01*
X6860658Y-17670650D02*
X6889229Y-17670650D01*
X6889229Y-17670650D02*
X6908277Y-17680174D01*
X6908277Y-17680174D02*
X6917801Y-17699222D01*
X6917801Y-17699222D02*
X6917801Y-17803984D01*
X6917801Y-17699222D02*
X6927324Y-17680174D01*
X6927324Y-17680174D02*
X6946372Y-17670650D01*
X6946372Y-17670650D02*
X6974943Y-17670650D01*
X6974943Y-17670650D02*
X6993991Y-17680174D01*
X6993991Y-17680174D02*
X7003515Y-17699222D01*
X7003515Y-17699222D02*
X7003515Y-17803984D01*
X7393991Y-17594460D02*
X7222563Y-17851603D01*
X7651134Y-17603984D02*
X7670182Y-17603984D01*
X7670182Y-17603984D02*
X7689229Y-17613508D01*
X7689229Y-17613508D02*
X7698753Y-17623031D01*
X7698753Y-17623031D02*
X7708277Y-17642079D01*
X7708277Y-17642079D02*
X7717801Y-17680174D01*
X7717801Y-17680174D02*
X7717801Y-17727793D01*
X7717801Y-17727793D02*
X7708277Y-17765889D01*
X7708277Y-17765889D02*
X7698753Y-17784936D01*
X7698753Y-17784936D02*
X7689229Y-17794460D01*
X7689229Y-17794460D02*
X7670182Y-17803984D01*
X7670182Y-17803984D02*
X7651134Y-17803984D01*
X7651134Y-17803984D02*
X7632086Y-17794460D01*
X7632086Y-17794460D02*
X7622563Y-17784936D01*
X7622563Y-17784936D02*
X7613039Y-17765889D01*
X7613039Y-17765889D02*
X7603515Y-17727793D01*
X7603515Y-17727793D02*
X7603515Y-17680174D01*
X7603515Y-17680174D02*
X7613039Y-17642079D01*
X7613039Y-17642079D02*
X7622563Y-17623031D01*
X7622563Y-17623031D02*
X7632086Y-17613508D01*
X7632086Y-17613508D02*
X7651134Y-17603984D01*
X7803515Y-17784936D02*
X7813039Y-17794460D01*
X7813039Y-17794460D02*
X7803515Y-17803984D01*
X7803515Y-17803984D02*
X7793991Y-17794460D01*
X7793991Y-17794460D02*
X7803515Y-17784936D01*
X7803515Y-17784936D02*
X7803515Y-17803984D01*
X8003515Y-17803984D02*
X7889229Y-17803984D01*
X7946372Y-17803984D02*
X7946372Y-17603984D01*
X7946372Y-17603984D02*
X7927325Y-17632555D01*
X7927325Y-17632555D02*
X7908277Y-17651603D01*
X7908277Y-17651603D02*
X7889229Y-17661127D01*
X8098753Y-17803984D02*
X8136848Y-17803984D01*
X8136848Y-17803984D02*
X8155896Y-17794460D01*
X8155896Y-17794460D02*
X8165420Y-17784936D01*
X8165420Y-17784936D02*
X8184467Y-17756365D01*
X8184467Y-17756365D02*
X8193991Y-17718270D01*
X8193991Y-17718270D02*
X8193991Y-17642079D01*
X8193991Y-17642079D02*
X8184467Y-17623031D01*
X8184467Y-17623031D02*
X8174944Y-17613508D01*
X8174944Y-17613508D02*
X8155896Y-17603984D01*
X8155896Y-17603984D02*
X8117801Y-17603984D01*
X8117801Y-17603984D02*
X8098753Y-17613508D01*
X8098753Y-17613508D02*
X8089229Y-17623031D01*
X8089229Y-17623031D02*
X8079706Y-17642079D01*
X8079706Y-17642079D02*
X8079706Y-17689698D01*
X8079706Y-17689698D02*
X8089229Y-17708746D01*
X8089229Y-17708746D02*
X8098753Y-17718270D01*
X8098753Y-17718270D02*
X8117801Y-17727793D01*
X8117801Y-17727793D02*
X8155896Y-17727793D01*
X8155896Y-17727793D02*
X8174944Y-17718270D01*
X8174944Y-17718270D02*
X8184467Y-17708746D01*
X8184467Y-17708746D02*
X8193991Y-17689698D01*
X8365420Y-17603984D02*
X8327325Y-17603984D01*
X8327325Y-17603984D02*
X8308277Y-17613508D01*
X8308277Y-17613508D02*
X8298753Y-17623031D01*
X8298753Y-17623031D02*
X8279706Y-17651603D01*
X8279706Y-17651603D02*
X8270182Y-17689698D01*
X8270182Y-17689698D02*
X8270182Y-17765889D01*
X8270182Y-17765889D02*
X8279706Y-17784936D01*
X8279706Y-17784936D02*
X8289229Y-17794460D01*
X8289229Y-17794460D02*
X8308277Y-17803984D01*
X8308277Y-17803984D02*
X8346372Y-17803984D01*
X8346372Y-17803984D02*
X8365420Y-17794460D01*
X8365420Y-17794460D02*
X8374944Y-17784936D01*
X8374944Y-17784936D02*
X8384467Y-17765889D01*
X8384467Y-17765889D02*
X8384467Y-17718270D01*
X8384467Y-17718270D02*
X8374944Y-17699222D01*
X8374944Y-17699222D02*
X8365420Y-17689698D01*
X8365420Y-17689698D02*
X8346372Y-17680174D01*
X8346372Y-17680174D02*
X8308277Y-17680174D01*
X8308277Y-17680174D02*
X8289229Y-17689698D01*
X8289229Y-17689698D02*
X8279706Y-17699222D01*
X8279706Y-17699222D02*
X8270182Y-17718270D01*
X8479706Y-17803984D02*
X8517801Y-17803984D01*
X8517801Y-17803984D02*
X8536849Y-17794460D01*
X8536849Y-17794460D02*
X8546372Y-17784936D01*
X8546372Y-17784936D02*
X8565420Y-17756365D01*
X8565420Y-17756365D02*
X8574944Y-17718270D01*
X8574944Y-17718270D02*
X8574944Y-17642079D01*
X8574944Y-17642079D02*
X8565420Y-17623031D01*
X8565420Y-17623031D02*
X8555896Y-17613508D01*
X8555896Y-17613508D02*
X8536849Y-17603984D01*
X8536849Y-17603984D02*
X8498753Y-17603984D01*
X8498753Y-17603984D02*
X8479706Y-17613508D01*
X8479706Y-17613508D02*
X8470182Y-17623031D01*
X8470182Y-17623031D02*
X8460658Y-17642079D01*
X8460658Y-17642079D02*
X8460658Y-17689698D01*
X8460658Y-17689698D02*
X8470182Y-17708746D01*
X8470182Y-17708746D02*
X8479706Y-17718270D01*
X8479706Y-17718270D02*
X8498753Y-17727793D01*
X8498753Y-17727793D02*
X8536849Y-17727793D01*
X8536849Y-17727793D02*
X8555896Y-17718270D01*
X8555896Y-17718270D02*
X8565420Y-17708746D01*
X8565420Y-17708746D02*
X8574944Y-17689698D01*
X8651134Y-17603984D02*
X8651134Y-17642079D01*
X8727325Y-17603984D02*
X8727325Y-17642079D01*
X9022563Y-17880174D02*
X9013039Y-17870650D01*
X9013039Y-17870650D02*
X8993991Y-17842079D01*
X8993991Y-17842079D02*
X8984468Y-17823031D01*
X8984468Y-17823031D02*
X8974944Y-17794460D01*
X8974944Y-17794460D02*
X8965420Y-17746841D01*
X8965420Y-17746841D02*
X8965420Y-17708746D01*
X8965420Y-17708746D02*
X8974944Y-17661127D01*
X8974944Y-17661127D02*
X8984468Y-17632555D01*
X8984468Y-17632555D02*
X8993991Y-17613508D01*
X8993991Y-17613508D02*
X9013039Y-17584936D01*
X9013039Y-17584936D02*
X9022563Y-17575412D01*
X9089230Y-17623031D02*
X9098753Y-17613508D01*
X9098753Y-17613508D02*
X9117801Y-17603984D01*
X9117801Y-17603984D02*
X9165420Y-17603984D01*
X9165420Y-17603984D02*
X9184468Y-17613508D01*
X9184468Y-17613508D02*
X9193991Y-17623031D01*
X9193991Y-17623031D02*
X9203515Y-17642079D01*
X9203515Y-17642079D02*
X9203515Y-17661127D01*
X9203515Y-17661127D02*
X9193991Y-17689698D01*
X9193991Y-17689698D02*
X9079706Y-17803984D01*
X9079706Y-17803984D02*
X9203515Y-17803984D01*
X9441611Y-17803984D02*
X9441611Y-17603984D01*
X9527325Y-17803984D02*
X9527325Y-17699222D01*
X9527325Y-17699222D02*
X9517801Y-17680174D01*
X9517801Y-17680174D02*
X9498753Y-17670650D01*
X9498753Y-17670650D02*
X9470182Y-17670650D01*
X9470182Y-17670650D02*
X9451134Y-17680174D01*
X9451134Y-17680174D02*
X9441611Y-17689698D01*
X9651134Y-17803984D02*
X9632087Y-17794460D01*
X9632087Y-17794460D02*
X9622563Y-17784936D01*
X9622563Y-17784936D02*
X9613039Y-17765889D01*
X9613039Y-17765889D02*
X9613039Y-17708746D01*
X9613039Y-17708746D02*
X9622563Y-17689698D01*
X9622563Y-17689698D02*
X9632087Y-17680174D01*
X9632087Y-17680174D02*
X9651134Y-17670650D01*
X9651134Y-17670650D02*
X9679706Y-17670650D01*
X9679706Y-17670650D02*
X9698753Y-17680174D01*
X9698753Y-17680174D02*
X9708277Y-17689698D01*
X9708277Y-17689698D02*
X9717801Y-17708746D01*
X9717801Y-17708746D02*
X9717801Y-17765889D01*
X9717801Y-17765889D02*
X9708277Y-17784936D01*
X9708277Y-17784936D02*
X9698753Y-17794460D01*
X9698753Y-17794460D02*
X9679706Y-17803984D01*
X9679706Y-17803984D02*
X9651134Y-17803984D01*
X9832087Y-17803984D02*
X9813039Y-17794460D01*
X9813039Y-17794460D02*
X9803515Y-17775412D01*
X9803515Y-17775412D02*
X9803515Y-17603984D01*
X9984468Y-17794460D02*
X9965420Y-17803984D01*
X9965420Y-17803984D02*
X9927325Y-17803984D01*
X9927325Y-17803984D02*
X9908277Y-17794460D01*
X9908277Y-17794460D02*
X9898753Y-17775412D01*
X9898753Y-17775412D02*
X9898753Y-17699222D01*
X9898753Y-17699222D02*
X9908277Y-17680174D01*
X9908277Y-17680174D02*
X9927325Y-17670650D01*
X9927325Y-17670650D02*
X9965420Y-17670650D01*
X9965420Y-17670650D02*
X9984468Y-17680174D01*
X9984468Y-17680174D02*
X9993992Y-17699222D01*
X9993992Y-17699222D02*
X9993992Y-17718270D01*
X9993992Y-17718270D02*
X9898753Y-17737317D01*
X10070182Y-17794460D02*
X10089230Y-17803984D01*
X10089230Y-17803984D02*
X10127325Y-17803984D01*
X10127325Y-17803984D02*
X10146373Y-17794460D01*
X10146373Y-17794460D02*
X10155896Y-17775412D01*
X10155896Y-17775412D02*
X10155896Y-17765889D01*
X10155896Y-17765889D02*
X10146373Y-17746841D01*
X10146373Y-17746841D02*
X10127325Y-17737317D01*
X10127325Y-17737317D02*
X10098753Y-17737317D01*
X10098753Y-17737317D02*
X10079706Y-17727793D01*
X10079706Y-17727793D02*
X10070182Y-17708746D01*
X10070182Y-17708746D02*
X10070182Y-17699222D01*
X10070182Y-17699222D02*
X10079706Y-17680174D01*
X10079706Y-17680174D02*
X10098753Y-17670650D01*
X10098753Y-17670650D02*
X10127325Y-17670650D01*
X10127325Y-17670650D02*
X10146373Y-17680174D01*
X10222563Y-17880174D02*
X10232087Y-17870650D01*
X10232087Y-17870650D02*
X10251134Y-17842079D01*
X10251134Y-17842079D02*
X10260658Y-17823031D01*
X10260658Y-17823031D02*
X10270182Y-17794460D01*
X10270182Y-17794460D02*
X10279706Y-17746841D01*
X10279706Y-17746841D02*
X10279706Y-17708746D01*
X10279706Y-17708746D02*
X10270182Y-17661127D01*
X10270182Y-17661127D02*
X10260658Y-17632555D01*
X10260658Y-17632555D02*
X10251134Y-17613508D01*
X10251134Y-17613508D02*
X10232087Y-17584936D01*
X10232087Y-17584936D02*
X10222563Y-17575412D01*
M02*
